<svg width="1440" height="333" viewBox="0 0 1440 333" fill="none" xmlns="http://www.w3.org/2000/svg">
<g clip-path="url(#clip0_108_1614)">
<path d="M153.509 44.9371C107.538 46.627 62.1621 53.6095 18.9134 65.649C-3.0966 71.7601 -28.5995 84.8971 -23.4319 102.242C-17.8816 121.088 15.8033 122.991 40.9712 121.125C92.0249 117.465 144.323 115.892 193.797 126.174C264.038 140.812 329.446 178.649 401.552 171.075C444.616 166.537 484.712 145.898 527.584 150.436C553.23 153.144 576.436 164.781 602.274 166.244C623.04 167.415 643.328 161.926 663.376 157.498C737.632 141.171 816.007 139.097 891.562 151.46C950.941 161.231 1013.81 179.674 1070.03 162.036C1091.04 155.449 1125.01 151.058 1137.02 165.988C1154.06 187.432 1126.97 229.221 1165.3 229.221C1203.63 229.221 1166.16 164.634 1205.59 164.634C1245.01 164.634 1196.02 304.201 1252.72 299.225C1298.32 295.199 1240.95 165.073 1290.47 165.073C1339.99 165.073 1290.09 229.661 1326.21 229.661C1362.34 229.661 1326.64 146.374 1378.17 145.203C1488.61 142.715 1489.56 118.709 1484.78 109.671C1481.86 104.145 1474.4 100.962 1467.31 98.5098C1421.05 82.4087 1367.79 78.0907 1325.78 56.2078C1304.2 44.9371 1286.69 29.5313 1264.68 18.7729C1207.64 -9.2211 1132.86 -1.06079 1067.93 13.8327C1003 28.7262 937.4 49.621 870.031 43.8759C831.13 40.5459 794.383 28.4335 755.674 23.8593C639.213 10.1733 526.005 65.9052 408.155 63.0143C354.566 61.7335 302.89 48.3769 249.971 41.7535C197.051 35.1301 74.2733 45.669 19.0569 65.5392" fill="white"/>
<g opacity="0.15">
<path opacity="0.15" d="M1363.44 94.2286C1363.82 94.2286 1364.18 94.113 1364.45 93.9071C1364.72 93.7012 1364.87 93.4219 1364.87 93.1307C1364.87 92.8396 1364.72 92.5603 1364.45 92.3545C1364.18 92.1486 1363.82 92.033 1363.44 92.033C1363.06 92.033 1362.69 92.1486 1362.42 92.3545C1362.15 92.5603 1362 92.8396 1362 93.1307C1362 93.4219 1362.15 93.7012 1362.42 93.9071C1362.69 94.113 1363.06 94.2286 1363.44 94.2286Z" fill="#336EC2"/>
</g>
<g opacity="0.35">
<path opacity="0.35" d="M219.877 56.9762C220.689 56.9762 221.468 56.7294 222.042 56.2902C222.616 55.851 222.939 55.2553 222.939 54.6342C222.939 54.013 222.616 53.4173 222.042 52.9781C221.468 52.5389 220.689 52.2922 219.877 52.2922C219.065 52.2922 218.286 52.5389 217.711 52.9781C217.137 53.4173 216.814 54.013 216.814 54.6342C216.814 55.2553 217.137 55.851 217.711 56.2902C218.286 56.7294 219.065 56.9762 219.877 56.9762Z" fill="#336EC2"/>
</g>
<g opacity="0.35">
<path opacity="0.35" d="M176.143 66.8196C176.449 66.7748 176.725 66.6497 176.923 66.466C177.122 66.2824 177.231 66.0515 177.231 65.8132C177.231 65.5749 177.122 65.3441 176.923 65.1604C176.725 64.9768 176.449 64.8517 176.143 64.8069C175.837 64.8517 175.561 64.9768 175.362 65.1604C175.164 65.3441 175.055 65.5749 175.055 65.8132C175.055 66.0515 175.164 66.2824 175.362 66.466C175.561 66.6497 175.837 66.7748 176.143 66.8196Z" fill="#336EC2"/>
</g>
<g opacity="0.35">
<path opacity="0.35" d="M254.088 71.138C254.647 71.138 255.182 70.9683 255.577 70.6664C255.972 70.3644 256.194 69.9549 256.194 69.5278C256.194 69.1008 255.972 68.6913 255.577 68.3893C255.182 68.0874 254.647 67.9177 254.088 67.9177C253.53 67.9177 252.995 68.0874 252.6 68.3893C252.205 68.6913 251.983 69.1008 251.983 69.5278C251.983 69.9549 252.205 70.3644 252.6 70.6664C252.995 70.9683 253.53 71.138 254.088 71.138Z" fill="#336EC2"/>
</g>
<g opacity="0.15">
<path opacity="0.15" d="M553.422 101.876L554.092 101.693C554.424 101.623 554.745 101.524 555.049 101.401C555.238 101.322 555.395 101.205 555.505 101.064C555.614 100.922 555.672 100.76 555.671 100.596C555.675 100.426 555.62 100.258 555.51 100.11C555.401 99.9618 555.242 99.839 555.049 99.754L554.092 99.4978L553.422 99.3148C553.11 99.2414 552.777 99.2414 552.465 99.3148C552.166 99.3497 551.894 99.4668 551.7 99.6441L551.413 99.9003C551.341 100.129 551.341 100.367 551.413 100.596C551.422 100.953 551.61 101.293 551.939 101.547C552.159 101.699 552.421 101.811 552.704 101.876C553.016 101.95 553.35 101.95 553.661 101.876H553.422Z" fill="#336EC2"/>
</g>
<g opacity="0.35">
<path opacity="0.35" d="M643.903 98.6556C644.094 98.6556 644.276 98.5977 644.411 98.4948C644.546 98.3919 644.621 98.2523 644.621 98.1067C644.621 97.9612 644.546 97.8215 644.411 97.7186C644.276 97.6156 644.094 97.5579 643.903 97.5579C643.713 97.5579 643.531 97.6156 643.396 97.7186C643.261 97.8215 643.186 97.9612 643.186 98.1067C643.186 98.2523 643.261 98.3919 643.396 98.4948C643.531 98.5977 643.713 98.6556 643.903 98.6556Z" fill="#336EC2"/>
</g>
<g opacity="0.35">
<path opacity="0.35" d="M721.849 38.7892C722.747 38.7105 723.577 38.3817 724.179 37.8654C724.781 37.3492 725.114 36.6816 725.114 35.9898C725.114 35.298 724.781 34.6303 724.179 34.1141C723.577 33.5978 722.747 33.2691 721.849 33.1904C720.95 33.2691 720.121 33.5978 719.518 34.1141C718.916 34.6303 718.583 35.298 718.583 35.9898C718.583 36.6816 718.916 37.3492 719.518 37.8654C720.121 38.3817 720.95 38.7105 721.849 38.7892Z" fill="#336EC2"/>
</g>
<g opacity="0.15">
<path opacity="0.15" d="M669.886 54.7804C670.368 54.7804 670.831 54.6339 671.172 54.3731C671.512 54.1123 671.704 53.7586 671.704 53.3898C671.704 53.021 671.512 52.6673 671.172 52.4065C670.831 52.1458 670.368 51.9993 669.886 51.9993C669.404 51.9993 668.941 52.1458 668.6 52.4065C668.259 52.6673 668.068 53.021 668.068 53.3898C668.068 53.7586 668.259 54.1123 668.6 54.3731C668.941 54.6339 669.404 54.7804 669.886 54.7804Z" fill="#336EC2"/>
</g>
<g opacity="0.15">
<path opacity="0.15" d="M767.303 62.3917C767.789 62.3346 768.232 62.1463 768.552 61.861C768.872 61.5758 769.048 61.2124 769.048 60.8365C769.048 60.4607 768.872 60.0972 768.552 59.8119C768.232 59.5267 767.789 59.3384 767.303 59.2812C766.817 59.3384 766.375 59.5267 766.055 59.8119C765.735 60.0972 765.559 60.4607 765.559 60.8365C765.559 61.2124 765.735 61.5758 766.055 61.861C766.375 62.1463 766.817 62.3346 767.303 62.3917Z" fill="#336EC2"/>
</g>
<g opacity="0.35">
<path opacity="0.35" d="M1167.79 29.7874V30.9951L1168.36 29.4581C1168.02 29.9277 1167.84 30.4569 1167.84 30.9951C1167.84 31.5332 1168.02 32.0623 1168.36 32.5319C1168.71 32.9952 1169.21 33.3808 1169.82 33.6504C1170.42 33.9199 1171.11 34.0641 1171.81 34.0689C1172.51 34.0716 1173.2 33.9305 1173.81 33.6602C1174.41 33.3899 1174.91 33.0002 1175.25 32.5319C1175.63 32.0714 1175.83 31.5388 1175.83 30.9951C1175.83 30.4514 1175.63 29.9186 1175.25 29.4581L1175.78 30.9951V29.7874C1175.82 29.3923 1175.7 28.9977 1175.44 28.653C1175.3 28.2728 1175.02 27.931 1174.63 27.6651C1174.3 27.3721 1173.87 27.1564 1173.39 27.0429C1172.91 26.8634 1172.39 26.7755 1171.86 26.7869H1170.85C1170.19 26.9324 1169.58 27.1958 1169.08 27.5553L1168.51 28.1773C1168.13 28.6243 1167.93 29.1456 1167.93 29.6777L1167.79 29.7874Z" fill="#336EC2"/>
</g>
<g opacity="0.15">
<path opacity="0.15" d="M1204.2 20.8946C1204.6 20.8994 1205 20.8237 1205.35 20.675C1205.73 20.6016 1206.06 20.4343 1206.31 20.1993C1206.59 20.0014 1206.81 19.749 1206.93 19.4675C1207.05 19.1941 1207.05 18.8992 1206.93 18.6258V18.0037C1206.8 17.626 1206.53 17.2838 1206.16 17.0157L1205.59 16.6497C1205.12 16.4465 1204.59 16.3452 1204.06 16.357C1203.68 16.2716 1203.28 16.2716 1202.91 16.357C1202.54 16.4529 1202.22 16.6163 1201.95 16.8328C1201.66 17.023 1201.46 17.2797 1201.38 17.5646C1201.18 17.8331 1201.08 18.136 1201.09 18.4429V19.0283C1201.23 19.4031 1201.49 19.7437 1201.86 20.0164L1202.48 20.3823C1202.92 20.5954 1203.44 20.7095 1203.96 20.7117L1204.2 20.8946Z" fill="#336EC2"/>
</g>
<g opacity="0.35">
<path opacity="0.35" d="M1239.94 37.1059C1240.32 37.1059 1240.69 36.9903 1240.96 36.7844C1241.23 36.5785 1241.38 36.2993 1241.38 36.0082C1241.38 35.717 1241.23 35.4378 1240.96 35.2319C1240.69 35.026 1240.32 34.9104 1239.94 34.9104C1239.56 34.9104 1239.2 35.026 1238.93 35.2319C1238.66 35.4378 1238.51 35.717 1238.51 36.0082C1238.51 36.2993 1238.66 36.5785 1238.93 36.7844C1239.2 36.9903 1239.56 37.1059 1239.94 37.1059Z" fill="#336EC2"/>
</g>
<g opacity="0.35">
<path opacity="0.35" d="M993.097 90.6056C993.516 90.6056 993.918 90.4783 994.214 90.2518C994.51 90.0254 994.676 89.7182 994.676 89.398C994.676 89.0777 994.51 88.7706 994.214 88.5441C993.918 88.3176 993.516 88.1904 993.097 88.1904C992.679 88.1904 992.277 88.3176 991.981 88.5441C991.685 88.7706 991.518 89.0777 991.518 89.398C991.518 89.7182 991.685 90.0254 991.981 90.2518C992.277 90.4783 992.679 90.6056 993.097 90.6056Z" fill="#336EC2"/>
</g>
<g opacity="0.15">
<path opacity="0.15" d="M1012.57 65.8687H1014.01C1014.23 65.9065 1014.46 65.9065 1014.68 65.8687C1015.11 65.7313 1015.45 65.4681 1015.63 65.1368C1015.68 64.98 1015.68 64.8179 1015.63 64.6611V64.2952C1015.59 64.0665 1015.43 63.8583 1015.2 63.7097L1014.87 63.4902C1014.57 63.4357 1014.26 63.4357 1013.96 63.4902H1012.52C1012.42 63.4559 1012.3 63.4382 1012.19 63.4382C1012.07 63.4382 1011.96 63.4559 1011.85 63.4902C1011.64 63.5254 1011.46 63.616 1011.33 63.7462C1011.17 63.8565 1011.06 63.9951 1010.99 64.1488C1010.94 64.3175 1010.94 64.4924 1010.99 64.6611V64.9905C1011.08 65.1966 1011.23 65.3845 1011.42 65.5394L1011.76 65.7589C1012.03 65.8534 1012.32 65.915 1012.62 65.9419L1012.57 65.8687Z" fill="#336EC2"/>
</g>
</g>
<defs>
<clipPath id="clip0_108_1614">
<rect width="1713" height="333" fill="white" transform="translate(-53)"/>
</clipPath>
</defs>
</svg>
