<?xml version="1.0" standalone="no"?>
<!DOCTYPE svg PUBLIC "-//W3C//DTD SVG 20010904//EN"
 "http://www.w3.org/TR/2001/REC-SVG-20010904/DTD/svg10.dtd">
<svg version="1.0" xmlns="http://www.w3.org/2000/svg"
 width="100.000000pt" height="100.000000pt" viewBox="0 0 100.000000 100.000000"
 preserveAspectRatio="xMidYMid meet">
<metadata>
Created by potrace 1.14, written by Peter Selinger 2001-2017
</metadata>
<g transform="translate(0.000000,100.000000) scale(0.100000,-0.100000)"
fill="#000000" stroke="none">
<path d="M375 833 c-27 -8 -73 -21 -102 -29 -40 -12 -57 -23 -73 -49 -20 -32
-21 -50 -6 -114 1 -2 -15 -5 -35 -6 -46 -3 -85 -29 -97 -63 -5 -15 -8 -54 -7
-86 1 -48 -2 -60 -16 -63 -24 -7 -28 -29 -18 -99 5 -32 10 -75 10 -94 3 -59
14 -71 65 -69 55 3 67 10 68 44 2 20 10 30 34 41 l32 13 0 -34 c0 -19 5 -37
12 -41 17 -11 101 -5 109 7 4 7 11 9 17 5 24 -15 83 -16 116 -2 23 9 36 11 38
4 2 -6 48 -12 108 -14 58 -2 122 -6 143 -9 22 -2 47 0 58 6 13 7 26 6 41 -2
13 -7 39 -14 59 -16 42 -5 46 1 54 83 2 27 7 60 10 74 7 32 -24 97 -50 104
-11 3 -33 6 -48 6 -17 0 -36 9 -46 22 -12 14 -29 21 -53 21 -34 0 -35 1 -34
42 2 64 -22 91 -102 115 l-69 20 -21 72 c-25 82 -27 88 -62 111 -29 20 -67 20
-135 0z"/>
</g>
</svg>
