<svg width="56" height="56" viewBox="0 0 56 56" fill="none" xmlns="http://www.w3.org/2000/svg">
<circle cx="28" cy="28" r="28" fill="#1AC7FF"/>
<path d="M22.823 34.7134L21.2136 33.0571C20.7709 32.6613 20.6147 32.0155 20.7657 31.4269C20.922 30.9634 21.1303 30.3592 21.4272 29.6665H15.9167C15.4678 29.6665 15.0529 29.4269 14.8306 29.0363C14.6083 28.6457 14.6125 28.1665 14.8416 27.7811L17.5746 23.1717C18.2496 22.0311 19.4756 21.2863 20.8022 21.2863H25.0834C25.2084 21.1249 25.3334 20.9322 25.4584 20.7447C29.724 14.4545 36.0782 14.2425 39.8699 14.9413C40.4792 15.0527 40.948 15.5223 41.0574 16.128C41.7553 19.9217 41.547 26.2759 35.2553 30.5415C35.073 30.6665 34.8282 30.7915 34.6667 30.8696V35.1978C34.6667 36.5259 33.9688 37.7499 32.8282 38.4269L28.2188 41.1561C27.8334 41.3853 27.3542 41.3905 26.9636 41.1717C26.573 40.9478 26.3334 40.5311 26.3334 40.0832V34.4999C25.599 34.7499 24.9584 34.9634 24.474 35.1196C23.8907 35.3071 23.2553 35.1457 22.823 34.7134ZM34.6667 23.3697C35.8178 23.3697 36.7501 22.4842 36.7501 21.2863C36.7501 20.1822 35.8178 19.203 34.6667 19.203C33.5157 19.203 32.5834 20.1822 32.5834 21.2863C32.5834 22.4842 33.5157 23.3697 34.6667 23.3697Z" fill="white"/>
</svg>
