<svg width="56" height="56" viewBox="0 0 56 56" fill="none" xmlns="http://www.w3.org/2000/svg">
<circle cx="28" cy="28" r="28" fill="#1AC7FF"/>
<path d="M28.73 26.2033L27.23 27.5778C25.2 29.4383 22.89 28.1733 22.145 27.3633C20.8 25.8933 20.905 23.6183 22.365 22.2783L26.455 18.5333H26.125C23.235 18.5333 20.455 19.6808 18.41 21.7233L13.6 21.7383C12.72 21.7383 12 22.4578 12 23.3373V31.3273C12 32.2068 12.72 32.9293 13.555 32.9293L19.27 32.9263L23.795 37.0173C25.17 38.1358 27.1825 37.9228 28.295 36.5546L29.201 37.3171C29.995 37.9221 31.17 37.8421 31.82 37.0486L33.389 35.1186L33.6577 35.3435C34.3452 35.8935 35.3517 35.7936 35.9077 35.1061L36.3865 34.5146C36.9405 33.8296 36.8354 32.8271 36.1514 32.2716L28.73 26.2033ZM42.4 21.7383L37.6 21.732C35.551 19.684 32.772 18.538 29.875 18.538L29.445 18.5333C29.045 18.5333 28.664 18.6932 28.364 18.9617L23.45 23.4483C23.445 23.4583 23.44 23.4683 23.44 23.4683C22.6 24.2583 22.62 25.4983 23.33 26.2683C23.8113 26.7933 25.08 27.3493 26.1365 26.4058C26.1365 26.3996 26.149 26.3996 26.1553 26.3933L30.1553 22.7383C30.4803 22.4448 30.9862 22.4635 31.2863 22.7883C31.5863 23.1131 31.5613 23.6193 31.2362 23.9193L29.9303 25.1128L37.2102 31.0178C37.8162 31.5174 38.1853 32.1923 38.3163 32.9168L42.4 32.9183C43.28 32.9183 44 32.1993 44 31.3193V23.3383C44 22.4533 43.285 21.7383 42.4 21.7383Z" fill="white"/>
</svg>
