<svg width="56" height="56" viewBox="0 0 56 56" fill="none" xmlns="http://www.w3.org/2000/svg">
<circle cx="28" cy="28" r="28" fill="#1AC7FF"/>
<path d="M12.4688 27.0034C12.1688 27.3034 12 27.7084 12 28.1334V34.5334C12 34.9584 12.1688 35.3644 12.4688 35.6644C12.7688 35.9644 13.175 36.1334 13.6 36.1334H15.2V26.5334H13.6C13.175 26.5334 12.769 26.7034 12.4688 27.0034ZM35.2 20.1334H29.6V16.9334C29.6 16.0524 28.881 15.3334 28 15.3334C27.119 15.3334 26.4 16.0524 26.4 16.9334V20.1334H20.8C18.59 20.1334 16.8 21.9234 16.8 24.1334V37.7334C16.8 39.5024 18.231 40.9334 20 40.9334H36C37.769 40.9334 39.2 39.5024 39.2 37.7334V24.1334C39.2 21.9234 37.415 20.1334 35.2 20.1334ZM24.8 36.1334H21.6V34.5334H24.8V36.1334ZM23.2 30.1334C22.095 30.1334 21.2 29.2384 21.2 28.1334C21.2 27.0284 22.095 26.1334 23.2 26.1334C24.305 26.1334 25.2 27.0284 25.2 28.1334C25.2 29.2384 24.305 30.1334 23.2 30.1334ZM29.6 36.1334H26.4V34.5334H29.6V36.1334ZM34.4 36.1334H31.2V34.5334H34.4V36.1334ZM32.8 30.1334C31.694 30.1334 30.8 29.2394 30.8 28.1334C30.8 27.0274 31.695 26.1334 32.8 26.1334C33.905 26.1334 34.8 27.0284 34.8 28.1334C34.8 29.2384 33.905 30.1334 32.8 30.1334ZM43.53 27.0034C43.23 26.7034 42.825 26.5334 42.4 26.5334H40.8V36.1334H42.4C42.825 36.1334 43.231 35.9646 43.531 35.6646C43.831 35.3646 44 34.9584 44 34.5334V28.1334C44 27.7084 43.83 27.3034 43.53 27.0034Z" fill="white"/>
</svg>
