<svg width="56" height="56" viewBox="0 0 56 56" fill="none" xmlns="http://www.w3.org/2000/svg">
<circle cx="28" cy="28" r="28" fill="#1AC7FF"/>
<g clip-path="url(#clip0_392_201)">
<path d="M28.0001 11.9995C28.2938 11.9995 28.5751 12.063 28.8376 12.1821L40.6063 17.1744C41.9813 17.7575 43.0126 19.1125 43.0001 20.6938C42.9688 26.95 40.4188 38.2938 29.6501 43.45C28.6063 43.9438 27.3938 43.9438 26.3501 43.45C15.5782 38.2938 13.0307 26.95 12.9438 20.6938C12.992 19.1125 14.0201 17.7575 15.3938 17.1744L27.1688 12.1821C27.4251 12.063 27.7126 11.9995 28.0001 11.9995ZM28.0001 39.8C36.5688 35.625 38.9438 26.3813 39.0001 20.8375L28.0001 16.1731V39.8Z" fill="white"/>
</g>
<defs>
<clipPath id="clip0_392_201">
<rect width="32" height="32" fill="white" transform="translate(12 12)"/>
</clipPath>
</defs>
</svg>
