<svg xmlns="http://www.w3.org/2000/svg" xmlns:xlink="http://www.w3.org/1999/xlink" width="1440" height="291.698" viewBox="0 0 1440 291.698">
  <defs>
    <clipPath id="clip-path">
      <rect id="Rectangle_5" data-name="Rectangle 5" width="1440" height="291.698" transform="translate(310 766.244)" fill="#fff"/>
    </clipPath>
  </defs>
  <g id="Mask_Group_3" data-name="Mask Group 3" transform="translate(-310 -766.244)" clip-path="url(#clip-path)">
    <path id="BG_Ice" data-name="BG Ice" d="M-99.95,46.983c135.831-8.514,193.7-95.849,354.6-8.386,72.387,39.35,152.566,11.638,312.941,21.841s119.24-2.022,459.78,87.861,459.779-273.541,459.779-25.035-22.915,593.773-22.915,593.773c-123.123,1.238-226.5-63.77-403.543-2.951s-312.741-14.3-459.776-33.068C318.695,645,219.525,979,164.24,848.5S57.861,765.353-35.882,717.037C-326.412,567.295-99.95,46.983-99.95,46.983Z" transform="translate(295.852 100.546)" fill="#d2f4ff"/>
    <g id="Water" transform="translate(449.925 878.943)">
      <path id="Path_230" data-name="Path 230" d="M66,47c8.975,6.731,32,2.936,81.5-32.5S146,11,103.5,85s-28.545,28-67,21.5c-19-3.212-31-27.425-31-33.5-8-51.5-9.5-12.078,12-10.289S52,36.5,66,47Z" fill="#1ac7ff"/>
      <path id="Path_231" data-name="Path 231" d="M66,167c0,6.627-2.426,12-9.054,12A11.955,11.955,0,0,1,45,167c0-6.627,5.319-23.5,11.946-23.5S66,160.373,66,167Z" fill="#1ac7ff"/>
      <path id="Path_232" data-name="Path 232" d="M49,135.087c0,3.266-4.352,5.913-7.429,5.913A5.75,5.75,0,0,1,36,135.087C36,131.821,42.673,124,45.75,124S49,131.821,49,135.087Z" fill="#1ac7ff"/>
      <path id="Path_233" data-name="Path 233" d="M64,142.087c0,3.266,4.352,5.913,7.429,5.913A5.75,5.75,0,0,0,77,142.087C77,138.821,70.327,131,67.25,131S64,138.821,64,142.087Z" fill="#1ac7ff"/>
    </g>
  </g>
</svg>
