<svg xmlns="http://www.w3.org/2000/svg" xmlns:xlink="http://www.w3.org/1999/xlink" width="134" height="152" viewBox="0 0 134 152">
  <defs>
    <clipPath id="clip-path">
      <rect id="Rectangle_4" data-name="Rectangle 4" width="79" height="96" fill="#fff"/>
    </clipPath>
    <clipPath id="clip-path-2">
      <rect id="Rectangle_3" data-name="Rectangle 3" width="111" height="87" fill="#fff"/>
    </clipPath>
  </defs>
  <g id="Group_3" data-name="Group 3" transform="translate(-1023 -475)">
    <g id="Frame" transform="translate(1078 475)" clip-path="url(#clip-path)">
      <path id="Path_206" data-name="Path 206" d="M79,92.734c0,2.463-1.748,3.474-3.885,2.242L4.815,54.5A8.589,8.589,0,0,1,.93,47.785V2.768C.93.3,2.678-.706,4.815.526L75.142,41a8.589,8.589,0,0,1,3.886,6.726Z" fill="#0f2034"/>
      <path id="Path_207" data-name="Path 207" d="M78.084,93.232c0,2.463-1.748,3.474-3.885,2.242L3.9,55A8.589,8.589,0,0,1,0,48.27V3.252C0,.789,1.748-.221,3.9,1.01L74.2,41.489a8.617,8.617,0,0,1,3.885,6.726Z" fill="#3576ab"/>
      <path id="Path_208" data-name="Path 208" d="M57.1,61.832c0-15.223-10.727-33.781-23.965-41.406S9.159,18.973,9.159,34.265c0,10.116,4.732,21.7,11.8,30.556L45.307,78.854C52.315,78.065,57.1,71.948,57.1,61.832Z" fill="#2b5e85" opacity="0.52"/>
      <path id="Path_209" data-name="Path 209" d="M33.082,42.181c0,12.607,5.884,27.013,14.668,38.057L74.2,95.46c2.137,1.232,3.885.221,3.885-2.242v-45A8.617,8.617,0,0,0,74.2,41.489L41.838,22.876C36.44,25.989,33.082,32.66,33.082,42.181Z" fill="#2b5e85" opacity="0.52"/>
      <path id="Path_210" data-name="Path 210" d="M78.084,93.232V55.369A46.306,46.306,0,0,0,63.9,41.807C50.664,34.2,39.937,40.423,39.937,55.646c0,7.916,2.9,16.717,7.535,24.426L74.2,95.46C76.336,96.706,78.084,95.7,78.084,93.232Z" fill="#3576ab" opacity="0.52"/>
      <path id="Path_211" data-name="Path 211" d="M26.754,27.553a36.043,36.043,0,0,0-4.163-15.776L3.9,1.01C1.748-.221,0,.789,0,3.252V30.93a32.807,32.807,0,0,0,8.437,7.21C18.553,43.938,26.754,39.206,26.754,27.553Z" fill="#3576ab" opacity="0.52"/>
      <path id="Path_212" data-name="Path 212" d="M53.508,70.869c0-17.008-11.989-37.7-26.754-46.208S0,23.056,0,40.063A45.956,45.956,0,0,0,2.22,53.625,6.656,6.656,0,0,0,3.9,55.009L51.08,82.189A24.853,24.853,0,0,0,53.508,70.869Z" fill="#174666" opacity="0.52"/>
      <path id="Path_213" data-name="Path 213" d="M78.084,93.232V80.127c-5.453-11.5-14.126-21.921-23.923-27.553-15.611-9-28.42-2.574-29.752,14.24L74.2,95.474C76.336,96.706,78.084,95.7,78.084,93.232Z" fill="#2b5e85" opacity="0.52"/>
      <path id="Path_214" data-name="Path 214" d="M18.595,36.991C18.595,25.74,13.9,13.064,6.647,2.6L3.872,1.01C1.721-.221-.028.789-.028,3.252V48.27A8.589,8.589,0,0,0,3.872,55l3.913,2.256C14.4,54.733,18.595,47.633,18.595,36.991Z" fill="#174666" opacity="0.52"/>
      <path id="Path_215" data-name="Path 215" d="M3.9,55,42.588,77.276a23.673,23.673,0,0,0,1.471-8.691c0-15.223-10.727-33.781-23.965-41.392C11.67,22.35,4.288,23.042,0,28.162V48.27A8.589,8.589,0,0,0,3.9,55Z" fill="#3576ab" opacity="0.52"/>
      <path id="Path_216" data-name="Path 216" d="M18.428,50.982A2.477,2.477,0,0,0,19.649,52.8l5.467,3.2c.666.4,1.221.208,1.221-.4a2.476,2.476,0,0,0-1.221-1.827l-5.481-3.2C18.983,50.18,18.428,50.373,18.428,50.982Z" fill="#fff"/>
      <path id="Path_217" data-name="Path 217" d="M10.519,47.426l5.467,3.211c.666.388,1.221.194,1.221-.415a2.477,2.477,0,0,0-1.221-1.827l-5.467-3.2C9.852,44.81,9.3,45,9.3,45.613a2.477,2.477,0,0,0,1.221,1.813Z" fill="#fff"/>
      <path id="Path_218" data-name="Path 218" d="M11.837,41.669l8.326,4.871c1.027.581,1.873.3,1.873-.623a3.764,3.764,0,0,0-1.873-2.768l-8.326-4.871c-1.027-.6-1.873-.3-1.873.623a3.764,3.764,0,0,0,1.873,2.768Z" fill="#fff"/>
      <path id="Path_219" data-name="Path 219" d="M36.676,65.25,10.63,50.027c-.846-.484-1.554-.249-1.554.526a3.169,3.169,0,0,0,1.554,2.311L36.676,68.087c.86.5,1.554.263,1.554-.512a3.086,3.086,0,0,0-1.554-2.325Z" fill="#fff"/>
      <path id="Path_220" data-name="Path 220" d="M27.032,50.415l8.326,4.871c1.027.595,1.873.3,1.873-.623A3.723,3.723,0,0,0,35.358,51.9l-8.326-4.885c-1.027-.581-1.873-.3-1.873.623a3.764,3.764,0,0,0,1.873,2.782Z" fill="#fff"/>
      <path id="Path_221" data-name="Path 221" d="M50.553,60.642l-8.326-4.885c-1.027-.581-1.86-.3-1.86.637a3.749,3.749,0,0,0,1.86,2.768l8.326,4.871c1.013.6,1.859.318,1.859-.623a3.763,3.763,0,0,0-1.859-2.768Z" fill="#fff"/>
      <path id="Path_222" data-name="Path 222" d="M65.748,69.388l-8.326-4.871c-1.027-.6-1.859-.3-1.859.623a3.708,3.708,0,0,0,1.859,2.768l8.326,4.885c1.013.581,1.859.3,1.859-.623a3.749,3.749,0,0,0-1.859-2.782Z" fill="#fff"/>
      <path id="Path_223" data-name="Path 223" d="M19.288,36.59c0,.443-.319.623-.708.4L7.91,30.847A1.59,1.59,0,0,1,7.2,29.615V21.436c0-.457.319-.636.708-.415l10.671,6.144a1.59,1.59,0,0,1,.708,1.232Z" fill="#ff9d26"/>
      <path id="Path_224" data-name="Path 224" d="M68.2,46.512c0,2.685-1.9,3.778-4.163,2.436a9.336,9.336,0,0,1-4.232-7.307c0-2.7,1.9-3.792,4.232-2.449A9.364,9.364,0,0,1,68.2,46.512Z" fill="#ff9d26"/>
      <path id="Path_225" data-name="Path 225" d="M74.879,50.4c0,2.685-1.887,3.778-4.232,2.436a9.363,9.363,0,0,1-4.163-7.321c0-2.685,1.9-3.778,4.163-2.436A9.322,9.322,0,0,1,74.879,50.4Z" fill="#e31b25"/>
    </g>
    <g id="Frame-1" transform="translate(1023 540)" clip-path="url(#clip-path-2)">
      <path id="Path_1" data-name="Path 1" d="M80.083,24.233a15.052,15.052,0,0,1-7.4-1.784,5.384,5.384,0,0,1-3.167-4.467,5.384,5.384,0,0,1,3.167-4.467,16.453,16.453,0,0,1,14.769,0,5.417,5.417,0,0,1,3.167,4.467,5.417,5.417,0,0,1-3.167,4.467A15.118,15.118,0,0,1,80.083,24.233Z" opacity="0.3"/>
      <path id="Path_2" data-name="Path 2" d="M89.65,15.888a6.937,6.937,0,0,0-2.363-2.062,15.959,15.959,0,0,0-14.457,0,6.392,6.392,0,0,0-2.511,2.356l-.492-.295v2.094a5.057,5.057,0,0,0,3.036,4.156,15.96,15.96,0,0,0,14.425,0A5.123,5.123,0,0,0,90.273,18.1V15.79Z" fill="#ba6000"/>
      <path id="Path_3" data-name="Path 3" d="M87.287,11.716c3.988,2.307,3.988,6.022,0,8.329a16.075,16.075,0,0,1-14.457,0c-4-2.307-4-6.021,0-8.329a16.075,16.075,0,0,1,14.457,0Z" fill="#ff9d26"/>
      <path id="Path_4" data-name="Path 4" d="M85.941,12.583a12.867,12.867,0,0,0-11.569,0c-3.184,1.849-3.184,4.827,0,6.676a12.867,12.867,0,0,0,11.569,0C89.125,17.41,89.125,14.432,85.941,12.583ZM84.924,18.67a10.464,10.464,0,0,1-9.452,0c-2.609-1.505-2.609-3.943,0-5.449a10.463,10.463,0,0,1,9.452,0C87.533,14.726,87.533,17.23,84.924,18.67Z" fill="#ba6000"/>
      <path id="Path_5" data-name="Path 5" d="M85.941,12.223a12.867,12.867,0,0,0-11.569,0c-3.184,1.833-3.184,4.827,0,6.66a12.867,12.867,0,0,0,11.569,0C89.125,17.05,89.125,14.055,85.941,12.223Zm-1.018,6.071a10.464,10.464,0,0,1-9.452,0c-2.609-1.489-2.609-3.943,0-5.432a10.464,10.464,0,0,1,9.452,0C87.533,14.35,87.533,16.8,84.924,18.293Z" fill="#ff8400"/>
      <path id="Path_6" data-name="Path 6" d="M83.677,17.393a1.636,1.636,0,0,0,.656-1.031v-.687H84.1a2,2,0,0,0-.492-.393,4.2,4.2,0,0,0-3.479-.115c-1.149.294-1.641.376-2.035.2s-.345-.442.3-.818a6.347,6.347,0,0,1,1.756-.589V13.3l-.837-.147a6.575,6.575,0,0,0-1.74.638l-.87-.507-.9-.082v.655l.935.54a2.506,2.506,0,0,0-.41.458l-.2-.131v.687a1.178,1.178,0,0,0,.689.965,4.641,4.641,0,0,0,3.577,0c.985-.262,1.526-.311,1.9-.1s.23.573-.328.9-1.493,0-2.068,0v.654l.853.835a7.119,7.119,0,0,0,2.1-.72l.935.54.952-.556v-.654Z" fill="#ba6000"/>
      <path id="Path_7" data-name="Path 7" d="M83.726,17.868l-.935-.54a7.632,7.632,0,0,1-2.068.72l-.886-.818a6.84,6.84,0,0,0,2.068-.687c.558-.327.722-.671.328-.9s-.919-.18-1.9.115a4.624,4.624,0,0,1-3.577,0c-.853-.491-.935-1.244,0-1.964L75.8,13.2l.968-.556.87.507a6.576,6.576,0,0,1,1.74-.638l.837.8a5.835,5.835,0,0,0-1.756.622c-.64.376-.574.655-.3.818s.886.1,2.035-.2a4.2,4.2,0,0,1,3.479.115c.886.491,1,1.293,0,2.062l1,.573Z" fill="#ff8400"/>
      <path id="Path_8" data-name="Path 8" d="M89.995,13.368a6.558,6.558,0,0,0-2.33-2.062,15.959,15.959,0,0,0-14.458,0,6.326,6.326,0,0,0-2.494,2.356l-.492-.295v2.094a5.074,5.074,0,0,0,2.987,4.156,15.96,15.96,0,0,0,14.458,0,5.107,5.107,0,0,0,3-4.025V13.27Z" fill="#ba6000"/>
      <path id="Path_9" data-name="Path 9" d="M87.664,9.2c4,2.307,4,6.021,0,8.329a16.075,16.075,0,0,1-14.457,0c-3.988-2.307-3.988-6.021,0-8.329a16.075,16.075,0,0,1,14.457,0Z" fill="#ff9d26"/>
      <path id="Path_10" data-name="Path 10" d="M86.3,10.079a12.751,12.751,0,0,0-11.569,0c-3.2,1.833-3.2,4.811,0,6.643a12.751,12.751,0,0,0,11.569,0C89.486,14.89,89.486,11.912,86.3,10.079ZM85.285,16.15a10.563,10.563,0,0,1-9.452,0c-2.609-1.505-2.609-3.943,0-5.449a10.464,10.464,0,0,1,9.452,0C87.894,12.207,87.894,14.645,85.285,16.15Z" fill="#ba6000"/>
      <path id="Path_11" data-name="Path 11" d="M86.3,9.7a12.867,12.867,0,0,0-11.569,0c-3.2,1.833-3.2,4.811,0,6.66a12.866,12.866,0,0,0,11.569,0C89.486,14.514,89.486,11.536,86.3,9.7Zm-1.018,6.071a10.464,10.464,0,0,1-9.452,0c-2.609-1.505-2.609-3.943,0-5.432a10.464,10.464,0,0,1,9.452,0C87.894,11.83,87.894,14.268,85.285,15.774Z" fill="#ff8400"/>
      <path id="Path_12" data-name="Path 12" d="M84,14.857a1.456,1.456,0,0,0,.64-1.014v-.7h-.23a1.931,1.931,0,0,0-.41-.327,4.228,4.228,0,0,0-3.5-.115c-1.149.295-1.641.376-2.019.2s-.345-.442.3-.818a5.688,5.688,0,0,1,1.756-.622V10.8l-.87-.115a6.115,6.115,0,0,0-1.756.638l-.87-.507-.952-.131v.655l.935.54a1.719,1.719,0,0,0-.41.458l-.2-.131v.687a1.129,1.129,0,0,0,.689.949,4.558,4.558,0,0,0,3.578,0c.968-.278,1.526-.311,1.9-.1s.23.573-.345.9-1.493-.082-2.068,0V15.3l.87.835a7.811,7.811,0,0,0,2.1-.72l.935.54.952-.556v-.655Z" fill="#ba6000"/>
      <path id="Path_13" data-name="Path 13" d="M84.087,15.348l-.935-.54a7.813,7.813,0,0,1-2.1.785l-.87-.835a6.84,6.84,0,0,0,2.068-.8c.574-.327.738-.671.345-.9s-.935-.18-1.9.115a4.624,4.624,0,0,1-3.578,0c-.87-.491-.935-1.244,0-1.964L76.1,10.685l.952-.556.87.507A6.659,6.659,0,0,1,79.672,10l.837.8a5.688,5.688,0,0,0-1.756.622c-.64.376-.574.655-.3.818s.87.1,2.018-.2A4.295,4.295,0,0,1,84,12.157c.87.491,1,1.293,0,2.062l1,.573Z" fill="#ff8400"/>
      <path id="Path_14" data-name="Path 14" d="M89.289,11.061a7.132,7.132,0,0,0-2.33-2.013,16.075,16.075,0,0,0-14.441,0A6.556,6.556,0,0,0,70.023,11.4l-.492-.295v2.111a5.041,5.041,0,0,0,2.987,4.091,15.96,15.96,0,0,0,14.458,0,5.107,5.107,0,0,0,2.987-4.042V10.963Z" fill="#ba6000"/>
      <path id="Path_15" data-name="Path 15" d="M86.959,6.889c3.988,2.291,3.988,6.021,0,8.312a15.959,15.959,0,0,1-14.458,0c-3.988-2.291-3.988-6.021,0-8.312a15.959,15.959,0,0,1,14.458,0Z" fill="#ff9d26"/>
      <path id="Path_16" data-name="Path 16" d="M85.646,7.756a12.866,12.866,0,0,0-11.487,0c-3.184,1.849-3.184,4.827,0,6.66a12.866,12.866,0,0,0,11.487,0C88.78,12.583,88.78,9.6,85.646,7.756Zm-1.018,6.071a10.464,10.464,0,0,1-9.452,0c-2.659-1.505-2.659-3.927-.066-5.432a10.464,10.464,0,0,1,9.452,0c2.609,1.505,2.609,3.927,0,5.432Z" fill="#ba6000"/>
      <path id="Path_17" data-name="Path 17" d="M85.646,7.412a12.751,12.751,0,0,0-11.487,0c-3.184,1.833-3.184,4.811,0,6.66a12.866,12.866,0,0,0,11.487,0C88.78,12.207,88.78,9.229,85.646,7.412Zm-1.018,6.071a10.464,10.464,0,0,1-9.452,0c-2.609-1.505-2.609-3.943,0-5.449a10.563,10.563,0,0,1,9.452,0c2.544,1.489,2.544,3.927-.066,5.432Z" fill="#ff8400"/>
      <path id="Path_18" data-name="Path 18" d="M83.332,12.55a1.505,1.505,0,0,0,.64-1.015v-.7h-.23a1.789,1.789,0,0,0-.492-.393,4.311,4.311,0,0,0-3.479-.115c-1.149.311-1.641.376-2.035.2s-.345-.442.3-.8A5.838,5.838,0,0,1,79.787,9.1V8.443L78.967,8.3a5.952,5.952,0,0,0-1.756.638l-.87-.507-.968-.1v.72l.935.54a2.063,2.063,0,0,0-.41.458L75.8,9.9v.687a1.129,1.129,0,0,0,.689.949,4.508,4.508,0,0,0,3.561,0c.985-.278,1.543-.327,1.9-.1s.23.573-.328.884-1.493-.082-2.068,0v.671l.853.818a7.052,7.052,0,0,0,1.953-.655l.935.524.968-.556v-.638Z" fill="#ba6000"/>
      <path id="Path_19" data-name="Path 19" d="M83.365,13.025l-1-.524a7.627,7.627,0,0,1-2.1.72l-.788-.9a6.034,6.034,0,0,0,2.068-.687c.558-.327.722-.655.328-.9s-.919-.164-1.9.115a4.508,4.508,0,0,1-3.561,0c-.87-.491-.935-1.244-.1-1.963l-.935-.54.968-.556.87.491a6.348,6.348,0,0,1,1.756-.622l.821.8a5.838,5.838,0,0,0-1.756.622c-.64.376-.558.655-.3.8s.886.115,2.035-.2A4.311,4.311,0,0,1,83.25,9.8c.886.507,1.018,1.293,0,2.062l1,.589Z" fill="#ff8400"/>
      <path id="Path_20" data-name="Path 20" d="M90.241,8.541a6.657,6.657,0,0,0-2.33-2.078,16.075,16.075,0,0,0-14.458,0,6.556,6.556,0,0,0-2.494,2.356l-.492-.295v2.16a5.073,5.073,0,0,0,2.987,4.156,16.075,16.075,0,0,0,14.458,0,5.188,5.188,0,0,0,3-4.156V8.443Z" fill="#ba6000"/>
      <path id="Path_21" data-name="Path 21" d="M87.91,4.369c4,2.291,4,6.021,0,8.312a15.956,15.956,0,0,1-7.229,1.731,15.956,15.956,0,0,1-7.229-1.731c-3.988-2.291-3.988-6.021,0-8.312a15.959,15.959,0,0,1,14.457,0Z" fill="#ff9d26"/>
      <path id="Path_22" data-name="Path 22" d="M86.549,5.236a12.866,12.866,0,0,0-11.487,0c-3.282,1.833-3.282,4.827,0,6.66a12.867,12.867,0,0,0,11.487,0C89.732,10.063,89.732,7.069,86.549,5.236Zm-1.018,6.071a10.464,10.464,0,0,1-9.452,0c-2.609-1.489-2.609-3.927,0-5.432a10.464,10.464,0,0,1,9.452,0C88.14,7.412,88.14,9.818,85.531,11.307Z" fill="#ba6000"/>
      <path id="Path_23" data-name="Path 23" d="M86.549,4.86a12.866,12.866,0,0,0-11.487,0c-3.282,1.849-3.282,4.827,0,6.66a12.751,12.751,0,0,0,11.487,0C89.732,9.687,89.732,6.709,86.549,4.86Zm-1.018,6.087a10.464,10.464,0,0,1-9.452,0C73.469,9.441,73.469,7,76.079,5.5a10.464,10.464,0,0,1,9.452,0C88.14,7,88.14,9.441,85.531,10.947Z" fill="#ff8400"/>
      <path id="Path_24" data-name="Path 24" d="M84.284,10.03a1.455,1.455,0,0,0,.64-1.014v-.7h-.246a1.967,1.967,0,0,0-.476-.393,4.36,4.36,0,0,0-3.479-.065c-1.149.311-1.641.393-2.019.2s-.345-.442.3-.8a5.688,5.688,0,0,1,1.723-.622V5.972l-.8-.2a6.575,6.575,0,0,0-1.756.622l-.87-.491-.952-.1v.655l.935.54a1.851,1.851,0,0,0-.427.458l-.18-.049V8.1a1.13,1.13,0,0,0,.771.949,4.558,4.558,0,0,0,3.577,0c.968-.278,1.526-.327,1.9-.115s.23.573-.328.9-1.51,0-2.084,0V10.5l.87.818a6.827,6.827,0,0,0,2.018-.638l.935.54.952-.556v-.655Z" fill="#ba6000"/>
      <path id="Path_25" data-name="Path 25" d="M84.333,10.521,83.4,9.965a6.822,6.822,0,0,1-2.1.72l-.87-.834a6.231,6.231,0,0,0,2.084-.687c.558-.311.722-.671.328-.9s-.935-.164-1.9.115a4.624,4.624,0,0,1-3.577,0c-.87-.507-.935-1.244,0-1.964l-.935-.54.952-.556.87.491A6.658,6.658,0,0,1,80,5.171l.837.818a5.69,5.69,0,0,0-1.756.605c-.64.36-.574.638-.3.8s.87.115,2.019-.2a4.36,4.36,0,0,1,3.5.115c.87.507,1,1.293,0,2.062l1,.573Z" fill="#ff8400"/>
      <path id="Path_26" data-name="Path 26" d="M88.665,5.89a6.967,6.967,0,0,0-2.33-2.078,16.075,16.075,0,0,0-14.457,0,6.359,6.359,0,0,0-2.494,2.373l-.492-.311V7.985a5.041,5.041,0,0,0,2.987,4.156,16.071,16.071,0,0,0,7.229,1.717,16.071,16.071,0,0,0,7.229-1.717A5.106,5.106,0,0,0,89.322,8.1V5.776Z" fill="#ba6000"/>
      <path id="Path_27" data-name="Path 27" d="M86.335,1.718c3.988,2.291,3.988,6.021,0,8.329a16.07,16.07,0,0,1-7.229,1.717,16.07,16.07,0,0,1-7.229-1.717c-3.988-2.307-3.988-6.038,0-8.329a15.96,15.96,0,0,1,14.458,0Z" fill="#ff9d26"/>
      <path id="Path_28" data-name="Path 28" d="M84.957,2.585a12.867,12.867,0,0,0-11.487,0c-3.184,1.849-3.184,4.827,0,6.66a12.749,12.749,0,0,0,5.744,1.367,12.749,12.749,0,0,0,5.744-1.367C88.157,7.412,88.157,4.434,84.957,2.585ZM84,8.656a10.462,10.462,0,0,1-4.726,1.128,10.462,10.462,0,0,1-4.726-1.128c-2.609-1.489-2.609-3.927,0-5.432a10.464,10.464,0,0,1,9.452,0C86.549,4.729,86.549,7.167,84,8.656Z" fill="#ba6000"/>
      <path id="Path_29" data-name="Path 29" d="M84.957,2.225a12.751,12.751,0,0,0-11.487,0c-3.184,1.833-3.184,4.811,0,6.66a12.864,12.864,0,0,0,5.744,1.353,12.864,12.864,0,0,0,5.744-1.353C88.157,7.036,88.157,4.14,84.957,2.225ZM84,8.3a10.462,10.462,0,0,1-4.726,1.128A10.462,10.462,0,0,1,74.553,8.3c-2.609-1.505-2.609-3.943,0-5.449a10.563,10.563,0,0,1,9.452,0C86.549,4.352,86.549,6.791,84,8.3Z" fill="#ff8400"/>
      <path id="Path_30" data-name="Path 30" d="M82.709,7.412a1.5,1.5,0,0,0,.64-1.014v-.7h-.23a1.788,1.788,0,0,0-.492-.393,4.328,4.328,0,0,0-3.545-.1c-1.149.311-1.641.393-2.035.2s-.345-.442.3-.8A5.838,5.838,0,0,1,79.1,3.976V3.322l-.82-.147a5.853,5.853,0,0,0-1.756.622l-.87-.491-.968-.1v.655l.935.54a2.063,2.063,0,0,0-.41.458l-.18-.131v.687a1.129,1.129,0,0,0,.689.949,4.509,4.509,0,0,0,3.561,0c.985-.278,1.542-.327,1.9-.1s.23.573-.328.884-1.493-.082-2.068,0V7.8l.853.834a7.629,7.629,0,0,0,2.1-.72l.935.54.968-.556V7.249Z" fill="#ba6000"/>
      <path id="Path_31" data-name="Path 31" d="M82.741,7.854l-.935-.54a6.676,6.676,0,0,1-2.1.72l-.853-.818a6.841,6.841,0,0,0,2.068-.687c.558-.327.722-.687.328-.9s-.919-.18-1.9.1a4.509,4.509,0,0,1-3.545.049c-.87-.491-.935-1.244-.1-1.964l-.935-.54.968-.556.87.491a6.346,6.346,0,0,1,1.74-.7l.821.8a5.837,5.837,0,0,0-1.756.622c-.64.36-.574.638-.3.8s.886.115,2.035-.2a4.327,4.327,0,0,1,3.479.115c.886.507,1.017,1.293,0,2.062l1,.589Z" fill="#ff8400"/>
      <path id="Path_32" data-name="Path 32" d="M99.021,37.389A15.068,15.068,0,0,1,91.6,35.621a5.417,5.417,0,0,1-3.167-4.467A5.417,5.417,0,0,1,91.6,26.688a16.452,16.452,0,0,1,14.769,0,5.387,5.387,0,0,1,3.168,4.467,5.388,5.388,0,0,1-3.168,4.467A15.049,15.049,0,0,1,99.021,37.389Z" opacity="0.3"/>
      <path id="Path_33" data-name="Path 33" d="M108.62,29.06a6.77,6.77,0,0,0-2.379-2.013,15.96,15.96,0,0,0-14.458,0A6.328,6.328,0,0,0,89.289,29.4l-.492-.311V31.2a5.074,5.074,0,0,0,2.987,4.156,15.96,15.96,0,0,0,14.458,0,5.091,5.091,0,0,0,2.987-4.042V28.962Z" fill="#ba6000"/>
      <path id="Path_34" data-name="Path 34" d="M106.241,24.888c3.988,2.307,3.988,6.021,0,8.329a16.075,16.075,0,0,1-14.458,0c-3.988-2.307-3.988-6.021,0-8.329a16.075,16.075,0,0,1,14.458,0Z" fill="#ff9d26"/>
      <path id="Path_35" data-name="Path 35" d="M104.862,25.771a12.718,12.718,0,0,0-11.487,0c-3.282,1.833-3.282,4.811,0,6.66a12.833,12.833,0,0,0,11.487,0C108.062,30.582,108.062,27.6,104.862,25.771Zm-1.017,6.071a10.464,10.464,0,0,1-9.452,0c-2.593-1.505-2.593-3.943,0-5.449a10.464,10.464,0,0,1,9.452,0C106.454,27.9,106.454,30.32,103.845,31.842Z" fill="#ba6000"/>
      <path id="Path_36" data-name="Path 36" d="M104.862,25.411a12.833,12.833,0,0,0-11.487,0c-3.282,1.833-3.282,4.811,0,6.66a12.833,12.833,0,0,0,11.487,0C108.062,30.205,108.062,27.227,104.862,25.411Zm-1.017,6.07a10.464,10.464,0,0,1-9.452,0c-2.593-1.489-2.593-3.943,0-5.432a10.464,10.464,0,0,1,9.452,0c2.609,1.473,2.609,3.927,0,5.416Z" fill="#ff8400"/>
      <path id="Path_37" data-name="Path 37" d="M102.614,30.565a1.635,1.635,0,0,0,.64-1.031v-.687h-.229a1.653,1.653,0,0,0-.476-.393,4.23,4.23,0,0,0-3.5-.115c-1.149.295-1.641.376-2.019.2s-.345-.442.279-.818A5.986,5.986,0,0,1,99.07,27.1v-.654l-.821-.147a6.463,6.463,0,0,0-1.756.638l-.87-.507-.968-.1v.72l.935.54a2.507,2.507,0,0,0-.41.458L95,27.915V28.6a1.129,1.129,0,0,0,.689.949,4.624,4.624,0,0,0,3.577,0c.968-.295,1.526-.327,1.9-.115s.214.573-.344.9-1.494-.016-2.052-.016v.654l.853.835a7.121,7.121,0,0,0,2.1-.72l.936.54,1.033-.491v-.655Z" fill="#ba6000"/>
      <path id="Path_38" data-name="Path 38" d="M102.647,31.04l-.935-.54a7.63,7.63,0,0,1-2.1.72l-.837-.9a6.84,6.84,0,0,0,2.068-.687c.558-.327.738-.671.345-.9s-.936-.18-1.9.115a4.705,4.705,0,0,1-3.577,0c-.87-.507-.935-1.26-.1-1.98l-.935-.54.968-.556.87.507a6.458,6.458,0,0,1,1.756-.638l.82.8a5.984,5.984,0,0,0-1.756.622c-.624.376-.558.654-.279.8s.87.115,2.019-.18a4.229,4.229,0,0,1,3.5.115c.87.491,1,1.293,0,2.062l1,.573Z" fill="#ff8400"/>
      <path id="Path_39" data-name="Path 39" d="M108.932,26.54a6.937,6.937,0,0,0-2.33-2.062,15.959,15.959,0,0,0-14.457,0,6.556,6.556,0,0,0-2.511,2.356l-.492-.295v2.143a5.057,5.057,0,0,0,3.069,4.107,15.96,15.96,0,0,0,14.458,0,5.142,5.142,0,0,0,2.921-4.107V26.442Z" fill="#ba6000"/>
      <path id="Path_40" data-name="Path 40" d="M106.6,22.368c3.988,2.307,3.988,6.021,0,8.329a16.075,16.075,0,0,1-14.458,0c-3.988-2.307-3.988-6.021,0-8.329a16.075,16.075,0,0,1,14.458,0Z" fill="#ff9d26"/>
      <path id="Path_41" data-name="Path 41" d="M105.224,23.251a12.751,12.751,0,0,0-11.57,0c-3.184,1.833-3.184,4.811,0,6.643a12.752,12.752,0,0,0,11.57,0C108.424,28.062,108.424,25.084,105.224,23.251Zm-1.018,6.07a10.563,10.563,0,0,1-9.452,0c-2.544-1.505-2.544-3.911,0-5.449a10.464,10.464,0,0,1,9.452,0C106.815,25.411,106.815,27.816,104.206,29.322Z" fill="#ba6000"/>
      <path id="Path_42" data-name="Path 42" d="M105.224,22.875a12.867,12.867,0,0,0-11.57,0c-3.184,1.833-3.184,4.811,0,6.66a12.867,12.867,0,0,0,11.57,0C108.424,27.685,108.424,24.708,105.224,22.875Zm-1.018,6.071a10.464,10.464,0,0,1-9.452,0c-2.609-1.505-2.609-3.943,0-5.432a10.464,10.464,0,0,1,9.452,0C106.815,25,106.815,27.44,104.206,28.945Z" fill="#ff8400"/>
      <path id="Path_43" data-name="Path 43" d="M102.975,28.029a1.506,1.506,0,0,0,.722-.982v-.7h-.229a1.741,1.741,0,0,0-.493-.393,4.2,4.2,0,0,0-3.479-.115c-1.149.295-1.641.376-2.035.2s-.345-.442.3-.818a5.838,5.838,0,0,1,1.756-.622v-.655l-.9-.164a5.953,5.953,0,0,0-1.756.638l-.87-.507-.968-.1v.654l.935.54a2.506,2.506,0,0,0-.41.458l-.18-.049V26.1a1.135,1.135,0,0,0,.689.949,4.508,4.508,0,0,0,3.561,0c.985-.278,1.526-.311,1.9-.1s.23.573-.328.884-1.494,0-2.068,0v.655l.853.834a7.623,7.623,0,0,0,2.084-.638l.936.54.968-.556v-.654Z" fill="#ba6000"/>
      <path id="Path_44" data-name="Path 44" d="M103.008,28.52l-.952-.54a7.63,7.63,0,0,1-2.1.72l-.853-.835a6.842,6.842,0,0,0,2.068-.687c.558-.327.722-.671.328-.9s-.919-.18-1.9.1a4.508,4.508,0,0,1-3.561,0c-.87-.491-.935-1.244-.1-1.963L95,23.873l.968-.556.87.507a6.464,6.464,0,0,1,1.756-.638l.821.8a5.837,5.837,0,0,0-1.756.622c-.64.376-.574.654-.3.8s.886.115,2.035-.18a4.278,4.278,0,0,1,3.479.1c.886.507,1.017,1.309,0,2.078l1,.573Z" fill="#ff8400"/>
      <path id="Path_45" data-name="Path 45" d="M108.21,24.233a6.821,6.821,0,0,0-2.33-2.094,16.075,16.075,0,0,0-14.457,0,6.556,6.556,0,0,0-2.494,2.373l-.492-.295v2.111a5.074,5.074,0,0,0,2.987,4.156,16.075,16.075,0,0,0,14.457,0,5.187,5.187,0,0,0,3-4.042V24.135Z" fill="#ba6000"/>
      <path id="Path_46" data-name="Path 46" d="M98.66,30.124c5.646,0,10.224-2.637,10.224-5.89s-4.577-5.891-10.224-5.891S88.436,20.98,88.436,24.233,93.013,30.124,98.66,30.124Z" fill="#ff9d26"/>
      <path id="Path_47" data-name="Path 47" d="M104.518,20.928a12.867,12.867,0,0,0-11.487,0c-3.282,1.849-3.282,4.909,0,6.66a12.866,12.866,0,0,0,11.487,0C107.7,25.755,107.7,22.777,104.518,20.928Zm-1.018,6.12a10.462,10.462,0,0,1-9.452,0c-2.609-1.489-2.609-3.927,0-5.432a10.462,10.462,0,0,1,9.452,0C106.11,23.071,106.11,25.509,103.5,27.047Z" fill="#ba6000"/>
      <path id="Path_48" data-name="Path 48" d="M104.518,20.5a12.752,12.752,0,0,0-11.487,0c-3.282,1.833-3.282,4.811,0,6.643a12.752,12.752,0,0,0,11.487,0C107.7,25.411,107.7,22.4,104.518,20.5ZM103.5,26.573a10.463,10.463,0,0,1-9.452,0c-2.609-1.505-2.609-3.943,0-5.449a10.463,10.463,0,0,1,9.452,0c2.61,1.571,2.61,4.009,0,5.514Z" fill="#ff8400"/>
      <path id="Path_49" data-name="Path 49" d="M102.253,25.722a1.543,1.543,0,0,0,.657-1.014V24h-.246a1.975,1.975,0,0,0-.476-.393,4.361,4.361,0,0,0-3.414-.066c-1.149.311-1.641.393-2.019.2s-.345-.426.3-.8a5.689,5.689,0,0,1,1.723-.622v-.654l-.837-.147a5.657,5.657,0,0,0-1.756.638l-.87-.507-.952-.1v.589l.935.54a2.72,2.72,0,0,0-.427.458l-.18-.131v.769a1.129,1.129,0,0,0,.689.949,4.558,4.558,0,0,0,3.578,0c.968-.278,1.526-.327,1.9-.115s.23.589-.344.9-1.494-.082-2.068,0v.671l.87.834a7.8,7.8,0,0,0,2.1-.72l.936.524.952-.556v-.654Z" fill="#ba6000"/>
      <path id="Path_50" data-name="Path 50" d="M102.3,26.2l-.936-.54a6.821,6.821,0,0,1-2.1.72l-.87-.834a6.029,6.029,0,0,0,2.018-.687c.575-.311.739-.671.345-.9s-.935-.164-1.9.115a4.559,4.559,0,0,1-3.577,0c-.87-.491-.935-1.244-.082-1.964l-.935-.54.952-.556.87.491a6,6,0,0,1,1.756-.622l.837.8a5.689,5.689,0,0,0-1.756.622c-.64.36-.574.654-.3.8s.87.115,2.018-.2a4.359,4.359,0,0,1,3.495.115c.87.507,1,1.293,0,2.062l1,.573Z" fill="#ff8400"/>
      <path id="Path_51" data-name="Path 51" d="M109.178,21.713a6.787,6.787,0,0,0-2.33-2.078,16.075,16.075,0,0,0-14.457,0,6.556,6.556,0,0,0-2.511,2.356L89.4,21.7v2.078a5.04,5.04,0,0,0,2.987,4.156,16.075,16.075,0,0,0,14.457,0,5.175,5.175,0,0,0,2.987-4.042V21.6Z" fill="#ba6000"/>
      <path id="Path_52" data-name="Path 52" d="M106.848,17.541c3.988,2.291,3.988,6.021,0,8.312a15.959,15.959,0,0,1-14.457,0c-3.988-2.291-3.988-6.021,0-8.312a15.959,15.959,0,0,1,14.457,0Z" fill="#ff9d26"/>
      <path id="Path_53" data-name="Path 53" d="M105.47,18.408a12.867,12.867,0,0,0-11.488,0c-3.184,1.833-3.184,4.909,0,6.659a12.867,12.867,0,0,0,11.488,0C108.621,23.235,108.621,20.241,105.47,18.408Zm-1.018,6.07a10.464,10.464,0,0,1-9.452,0c-2.609-1.505-2.609-3.943,0-5.432a10.464,10.464,0,0,1,9.452,0C107.062,20.5,107.062,22.973,104.452,24.479Z" fill="#ba6000"/>
      <path id="Path_54" data-name="Path 54" d="M105.47,18.048a12.752,12.752,0,0,0-11.488,0c-3.184,1.833-3.184,4.811,0,6.643a12.752,12.752,0,0,0,11.488,0C108.621,22.859,108.621,19.881,105.47,18.048Zm-1.018,6.07a10.562,10.562,0,0,1-9.452,0c-2.609-1.505-2.609-3.943,0-5.449a10.562,10.562,0,0,1,9.452,0C107.062,20.175,107.062,22.613,104.452,24.118Z" fill="#ff8400"/>
      <path id="Path_55" data-name="Path 55" d="M103.221,23.2a1.5,1.5,0,0,0,.435-.463,1.481,1.481,0,0,0,.205-.6v-.654h-.229a1.784,1.784,0,0,0-.493-.393,4.327,4.327,0,0,0-3.479-.115c-1.149.311-1.641.393-2.035.2s-.345-.442.3-.8a5.84,5.84,0,0,1,1.756-.622V19.1l-.821-.147a5.852,5.852,0,0,0-1.756.622l-.87-.491-.968-.1v.654l.935.54a1.753,1.753,0,0,0-.41.458l-.18-.131v.687a1.135,1.135,0,0,0,.689.949,4.591,4.591,0,0,0,3.561,0c.985-.278,1.543-.327,1.9-.115s.23.573-.328.9-1.494-.082-2.068,0v.655l.853.834a6.678,6.678,0,0,0,2.1-.638l.935.54.969-.556V23.1Z" fill="#ba6000"/>
      <path id="Path_56" data-name="Path 56" d="M103.254,23.677l-.935-.54a6.676,6.676,0,0,1-2.1.72l-.853-.835a6.042,6.042,0,0,0,2.068-.687c.558-.311.722-.671.328-.9s-.919-.164-1.9.115a4.508,4.508,0,0,1-3.561,0c-.87-.507-.935-1.244-.1-1.964l-.935-.54.968-.556.87.491a5.852,5.852,0,0,1,1.756-.622l.821.8a5.837,5.837,0,0,0-1.756.622c-.64.36-.574.638-.3.8s.886.115,2.035-.2a4.326,4.326,0,0,1,3.479.115c.887.507,1.018,1.293,0,2.062l1,.573Z" fill="#ff8400"/>
      <path id="Path_57" data-name="Path 57" d="M108.341,19.063a6.962,6.962,0,0,0-2.33-2.078,16.074,16.074,0,0,0-14.457,0,6.557,6.557,0,0,0-2.494,2.356l-.492-.294v2.111a5.041,5.041,0,0,0,2.987,4.156,15.959,15.959,0,0,0,14.457,0A5.108,5.108,0,0,0,109,21.271V18.964Z" fill="#ba6000"/>
      <path id="Path_58" data-name="Path 58" d="M106.011,14.89c3.988,2.291,3.988,6.021,0,8.312a15.959,15.959,0,0,1-14.458,0c-3.988-2.291-3.988-6.021,0-8.312a15.959,15.959,0,0,1,14.458,0Z" fill="#ff9d26"/>
      <path id="Path_59" data-name="Path 59" d="M104.633,15.757a12.867,12.867,0,0,0-11.488,0c-3.184,1.849-3.184,4.827,0,6.66a12.867,12.867,0,0,0,11.488,0C107.833,20.584,107.833,17.606,104.633,15.757Zm-.936,6.07a10.463,10.463,0,0,1-9.452,0c-2.609-1.489-2.609-3.927,0-5.432a10.463,10.463,0,0,1,9.452,0C106.225,17.9,106.225,20.339,103.7,21.828Z" fill="#ba6000"/>
      <path id="Path_60" data-name="Path 60" d="M104.633,15.4a12.752,12.752,0,0,0-11.488,0c-3.184,1.833-3.184,4.811,0,6.643a12.751,12.751,0,0,0,11.488,0C107.833,20.208,107.833,17.23,104.633,15.4Zm-.936,6.071a10.463,10.463,0,0,1-9.452,0c-2.609-1.505-2.609-3.943,0-5.449a10.463,10.463,0,0,1,9.452,0C106.225,17.524,106.225,19.962,103.7,21.468Z" fill="#ff8400"/>
      <path id="Path_61" data-name="Path 61" d="M102.385,20.5a1.511,1.511,0,0,0,.64-1.014v-.622h-.23a1.533,1.533,0,0,0-.492-.393,4.312,4.312,0,0,0-3.529-.1c-1.149.311-1.641.393-2.035.2s-.345-.442.3-.8a5.985,5.985,0,0,1,1.74-.54v-.655l-.821-.147a5.855,5.855,0,0,0-1.756.622l-.87-.491-.968-.1v.654l.935.54a2.06,2.06,0,0,0-.41.458l-.181-.131v.687a1.129,1.129,0,0,0,.689.949,4.557,4.557,0,0,0,3.577,0c.968-.278,1.526-.327,1.887-.1s.23.573-.328.884-1.493,0-2.067,0v.671l.853.818a7.046,7.046,0,0,0,2.1-.7l.936.524.968-.556V20.5Z" fill="#ba6000"/>
      <path id="Path_62" data-name="Path 62" d="M102.417,21.026l-.935-.524a6.677,6.677,0,0,1-2.1.72l-.853-.834A6.037,6.037,0,0,0,100.6,19.7c.558-.311.722-.671.328-.884s-.919-.18-1.887.1a4.623,4.623,0,0,1-3.545-.049c-.87-.491-.935-1.243-.1-1.964l-.935-.54.968-.556.87.491a7.067,7.067,0,0,1,1.756-.638l.82.818a5.984,5.984,0,0,0-1.756.622c-.64.36-.574.638-.3.8s.886.115,2.035-.2a4.31,4.31,0,0,1,3.479.115c.886.507,1.018,1.293,0,2.062l1,.589Z" fill="#ff8400"/>
      <path id="Path_63" data-name="Path 63" d="M109.293,16.559a6.555,6.555,0,0,0-2.314-2.062,15.926,15.926,0,0,0-14.441,0,6.277,6.277,0,0,0-2.511,2.356l-.492-.295v2.094a5.057,5.057,0,0,0,3,4.156,15.926,15.926,0,0,0,14.441,0,5.107,5.107,0,0,0,3-4.042V16.461Z" fill="#ba6000"/>
      <path id="Path_64" data-name="Path 64" d="M106.979,12.321c4.005,2.307,4.005,6.022,0,8.329a16.024,16.024,0,0,1-14.441,0c-4-2.307-4-6.021,0-8.329a16.025,16.025,0,0,1,14.441,0Z" fill="#ff9d26"/>
      <path id="Path_65" data-name="Path 65" d="M105.6,13.254a12.866,12.866,0,0,0-11.487,0c-3.282,1.849-3.282,4.827,0,6.676a12.866,12.866,0,0,0,11.487,0C108.785,18.081,108.785,15.1,105.6,13.254Zm-1.018,6.087a10.562,10.562,0,0,1-9.452,0c-2.609-1.505-2.609-3.943,0-5.449a10.463,10.463,0,0,1,9.452,0C107.193,15.4,107.193,17.835,104.583,19.341Z" fill="#ba6000"/>
      <path id="Path_66" data-name="Path 66" d="M105.6,12.894a12.866,12.866,0,0,0-11.487,0c-3.282,1.849-3.282,4.827,0,6.66a12.867,12.867,0,0,0,11.487,0C108.785,17.721,108.785,14.743,105.6,12.894Zm-1.018,6.071a10.463,10.463,0,0,1-9.452,0c-2.609-1.505-2.609-3.943,0-5.432a10.463,10.463,0,0,1,9.452,0C107.193,15.021,107.193,17.459,104.583,18.964Z" fill="#ff8400"/>
      <path id="Path_67" data-name="Path 67" d="M103.336,18.048a1.417,1.417,0,0,0,.64-1.014v-.7h-.246a1.625,1.625,0,0,0-.476-.393,4.227,4.227,0,0,0-3.495-.115c-1.149.295-1.641.376-2.019.18s-.345-.425.3-.8a6.166,6.166,0,0,1,1.756-.622v-.622l-.837-.147a6.114,6.114,0,0,0-1.756.638l-.853-.491h-.952v.655l.935.54a2.506,2.506,0,0,0-.41.458l-.2-.131v.687a1.129,1.129,0,0,0,.689.949,4.557,4.557,0,0,0,3.577,0c.984-.278,1.526-.311,1.9-.1s.23.573-.344.9-1.494-.082-2.052,0v.654l.854.834a7.808,7.808,0,0,0,2.1-.72l.936.54.951-.556v-.655Z" fill="#ba6000"/>
      <path id="Path_68" data-name="Path 68" d="M103.386,18.539,102.45,18a7.808,7.808,0,0,1-2.1.72l-.854-.834a6.742,6.742,0,0,0,2.052-.655c.574-.327.738-.671.344-.9s-.919-.164-1.9.1a4.558,4.558,0,0,1-3.577,0c-.87-.491-.935-1.244,0-1.963l-1.017-.507.952-.556.87.507a6.113,6.113,0,0,1,1.756-.638l.837.8a5.686,5.686,0,0,0-1.756.622c-.64.376-.574.655-.3.8s.87.115,2.019-.18a4.312,4.312,0,0,1,3.5.1c.87.507,1,1.309,0,2.062l1,.589Z" fill="#ff8400"/>
      <path id="Path_69" data-name="Path 69" d="M110.262,13.745a6.663,6.663,0,0,0-2.331-2.078,16.025,16.025,0,0,0-14.441,0,6.426,6.426,0,0,0-2.511,2.373l-.492-.311v2.111a5.057,5.057,0,0,0,3,4.156,16.024,16.024,0,0,0,14.441,0,5.153,5.153,0,0,0,3-4.042V13.63Z" fill="#ba6000"/>
      <path id="Path_70" data-name="Path 70" d="M108,9.572c4,2.291,4,6.021,0,8.312a15.926,15.926,0,0,1-14.441,0c-4-2.291-4-6.021,0-8.312a15.927,15.927,0,0,1,14.441,0Z" fill="#ff9d26"/>
      <path id="Path_71" data-name="Path 71" d="M106.635,10.439a12.867,12.867,0,0,0-11.57,0c-3.2,1.849-3.2,4.827,0,6.66a12.867,12.867,0,0,0,11.57,0C109.819,15.266,109.819,12.321,106.635,10.439Zm-1.018,6.07a10.463,10.463,0,0,1-9.452,0c-2.609-1.505-2.609-3.927,0-5.432a10.463,10.463,0,0,1,9.452,0C108.227,12.583,108.227,15,105.617,16.51Z" fill="#ba6000"/>
      <path id="Path_72" data-name="Path 72" d="M106.635,10.079a12.752,12.752,0,0,0-11.57,0c-3.2,1.833-3.2,4.811,0,6.643a12.751,12.751,0,0,0,11.57,0C109.819,14.89,109.819,11.912,106.635,10.079Zm-1.018,6.071a10.562,10.562,0,0,1-9.452,0c-2.609-1.505-2.609-3.943,0-5.449a10.463,10.463,0,0,1,9.452,0C108.227,12.207,108.227,14.645,105.617,16.15Z" fill="#ff8400"/>
      <path id="Path_73" data-name="Path 73" d="M104.37,15.234a1.451,1.451,0,0,0,.64-1.014v-.7h-.23a1.956,1.956,0,0,0-.476-.393,4.359,4.359,0,0,0-3.5-.115c-1.149.311-1.641.393-2.018.2s-.345-.442.3-.8a5.69,5.69,0,0,1,1.756-.622v-.655L100,10.979a6,6,0,0,0-1.756.622l-.87-.491-.952-.1v.655l.935.54a1.752,1.752,0,0,0-.41.458l-.2-.131v.687a1.129,1.129,0,0,0,.689.949,4.623,4.623,0,0,0,3.577,0c.969-.278,1.527-.327,1.9-.115s.23.589-.328.9-1.494,0-2.084,0v.671l.869.834a7.378,7.378,0,0,0,2.085-.72l.951.524.952-.556v-.655Z" fill="#ba6000"/>
      <path id="Path_74" data-name="Path 74" d="M104.419,15.708l-.951-.54a6.473,6.473,0,0,1-2.085.72l-.869-.834a6.126,6.126,0,0,0,2.084-.687c.558-.311.722-.671.328-.9s-.935-.164-1.9.115a4.623,4.623,0,0,1-3.577,0c-.87-.491-.935-1.244,0-1.964l-.935-.54.952-.556.87.491a6,6,0,0,1,1.756-.622l.837.8a5.687,5.687,0,0,0-1.756.622c-.64.36-.574.638-.3.8s.87.115,2.018-.2a4.362,4.362,0,0,1,3.5.115c.869.507,1,1.293,0,2.062l1,.573Z" fill="#ff8400"/>
      <path id="Path_75" data-name="Path 75" d="M83.119,62.227a3.4,3.4,0,0,1-1.756-.442l-49.674-28.6a1.979,1.979,0,0,1-1.083-1.636,2.127,2.127,0,0,1,1.182-1.833L53.121,17.426a4.08,4.08,0,0,1,3.692,0L106.52,45.9a1.979,1.979,0,0,1,1.083,1.636,2.125,2.125,0,0,1-1.181,1.833L85.088,61.654A4.062,4.062,0,0,1,83.119,62.227Z" opacity="0.3"/>
      <path id="Path_76" data-name="Path 76" d="M106.356,44.572l-3.282-.082v.818L56.222,18.359a2.814,2.814,0,0,0-2.478,0L35.118,29.142l.181-.2-3.446-.458v2.962a.769.769,0,0,0,.459.671l49.674,28.6a2.732,2.732,0,0,0,2.462,0L105.781,48.45a.968.968,0,0,0,.381-.311.953.953,0,0,0,.177-.458Z" fill="#0a8074"/>
      <path id="Path_77" data-name="Path 77" d="M105.9,43.95l-49.674-28.6a2.763,2.763,0,0,0-2.478,0L32.411,27.636c-.706.409-.755,1.047-.1,1.407L81.987,57.711a2.666,2.666,0,0,0,2.461,0l21.334-12.288C106.5,45.046,106.553,44.326,105.9,43.95Z" fill="#16a89f"/>
      <path id="Path_78" data-name="Path 78" d="M98.774,43.41l.2-.115c.656-.376.673-.982,0-1.342L59.028,18.964a2.584,2.584,0,0,0-2.347,0H56.55a2.583,2.583,0,0,1-2.347,0,2.584,2.584,0,0,0-2.347,0L38.729,26.491c-.64.376-.656.982,0,1.358.64.36.624.965,0,1.342l-.181.1c-.656.376-.673.982,0,1.358l39.91,23.137a2.616,2.616,0,0,0,2.314,0l.23-.131a2.566,2.566,0,0,1,2.314,0l.525.311a2.633,2.633,0,0,0,2.347,0l13.03-7.511c.656-.376.673-.982,0-1.342l-.443-.344C98.1,44.392,98.118,43.8,98.774,43.41Z" fill="#bafffb"/>
      <path id="Path_79" data-name="Path 79" d="M75.012,39.99c4.677-2.7,5.809-6.414,2.527-8.3s-9.748-1.26-14.425,1.44-5.809,6.414-2.511,8.3S70.335,42.674,75.012,39.99Z" fill="#16a89f"/>
      <path id="Path_80" data-name="Path 80" d="M52.037,26.7c-1.477.867-1.641,2.193-.213,2.978a5.725,5.725,0,0,0,5.153-.131c1.477-.851,1.641-2.176.213-2.962a5.726,5.726,0,0,0-5.153.115Z" fill="#16a89f"/>
      <path id="Path_81" data-name="Path 81" d="M81.084,43.41c-1.493.851-1.641,2.193-.23,2.978a5.758,5.758,0,0,0,5.169-.131c1.477-.851,1.641-2.193.213-2.962a5.726,5.726,0,0,0-5.153.114Z" fill="#16a89f"/>
      <path id="Path_82" data-name="Path 82" d="M106.356,41.168h-3.282v.8L56.222,14.955a2.764,2.764,0,0,0-2.478,0l-18.626,10.8.181-.213L31.853,25.1v2.945a.769.769,0,0,0,.459.687l49.674,28.6a2.731,2.731,0,0,0,2.462,0l21.333-12.288a.93.93,0,0,0,.558-.769Z" fill="#0a8074"/>
      <path id="Path_83" data-name="Path 83" d="M105.9,40.563l-49.674-28.6a2.763,2.763,0,0,0-2.478,0L32.411,24.249c-.706.409-.755,1.047-.1,1.424L81.987,54.324a2.731,2.731,0,0,0,2.461,0l21.334-12.288C106.5,41.561,106.553,40.939,105.9,40.563Z" fill="#16a89f"/>
      <path id="Path_84" data-name="Path 84" d="M98.774,40.023l.2-.115c.656-.376.673-.982,0-1.342L59.028,15.594a2.533,2.533,0,0,0-2.347,0H56.55a2.583,2.583,0,0,1-2.347,0,2.632,2.632,0,0,0-2.347,0L38.729,23.137c-.64.376-.656.982,0,1.342.64.36.624.965,0,1.342l-.181.115c-.656.376-.673.982,0,1.342L78.458,50.4a2.666,2.666,0,0,0,2.314,0l.23-.131a2.566,2.566,0,0,1,2.314,0l.525.295a2.583,2.583,0,0,0,2.347,0l13.03-7.51c.656-.376.673-.965,0-1.342l-.443-.344C98.1,41,98.118,40.4,98.774,40.023Z" fill="#bafffb"/>
      <path id="Path_85" data-name="Path 85" d="M75.012,36.587c4.677-2.7,5.809-6.414,2.527-8.3s-9.748-1.243-14.425,1.44-5.809,6.414-2.511,8.312S70.335,39.287,75.012,36.587Z" fill="#16a89f"/>
      <path id="Path_86" data-name="Path 86" d="M52.037,23.317c-1.477.851-1.641,2.176-.213,2.962a5.726,5.726,0,0,0,5.153-.115c1.477-.867,1.641-2.193.213-2.978a5.726,5.726,0,0,0-5.153.131Z" fill="#16a89f"/>
      <path id="Path_87" data-name="Path 87" d="M81.084,40.039c-1.493.851-1.641,2.176-.23,2.962a5.808,5.808,0,0,0,5.169-.115c1.477-.867,1.641-2.193.213-2.978a5.676,5.676,0,0,0-5.153.131Z" fill="#16a89f"/>
      <path id="Path_88" data-name="Path 88" d="M106.356,37.8h-3.282v.7L56.222,11.585a2.764,2.764,0,0,0-2.478,0L35.118,22.368l.181-.2-3.446-.458v2.962a.769.769,0,0,0,.459.671l49.674,28.6a2.682,2.682,0,0,0,2.462,0l21.333-12.288a.93.93,0,0,0,.558-.769Z" fill="#0a8074"/>
      <path id="Path_89" data-name="Path 89" d="M105.9,37.176,56.222,8.574a2.764,2.764,0,0,0-2.478,0L32.411,20.862c-.706.409-.755,1.047-.1,1.424L81.987,50.937a2.665,2.665,0,0,0,2.461,0l21.334-12.288C106.5,38.19,106.553,37.552,105.9,37.176Z" fill="#16a89f"/>
      <path id="Path_90" data-name="Path 90" d="M98.774,36.652l.2-.115c.656-.376.673-.982,0-1.342L59.028,12.19a2.583,2.583,0,0,0-2.347,0l-.131.082a2.583,2.583,0,0,1-2.347,0,2.583,2.583,0,0,0-2.347,0L38.729,19.8c-.64.376-.656.982,0,1.358.64.36.624.965,0,1.342l-.181.1c-.656.376-.673.982,0,1.358L78.458,47.01a2.616,2.616,0,0,0,2.314,0l.23-.131a2.567,2.567,0,0,1,2.314,0l.525.311a2.632,2.632,0,0,0,2.347,0l13.03-7.51c.656-.376.673-.982,0-1.342l-.443-.344C98.1,37.618,98.118,37.029,98.774,36.652Z" fill="#bafffb"/>
      <path id="Path_91" data-name="Path 91" d="M75.012,33.216c4.677-2.7,5.809-6.414,2.527-8.312S67.791,23.66,63.114,26.36s-5.809,6.414-2.511,8.3S70.335,35.9,75.012,33.216Z" fill="#16a89f"/>
      <path id="Path_92" data-name="Path 92" d="M52.037,19.946c-1.477.851-1.641,2.176-.213,2.962a5.725,5.725,0,0,0,5.153-.131c1.477-.851,1.641-2.176.213-2.962a5.677,5.677,0,0,0-5.153.131Z" fill="#16a89f"/>
      <path id="Path_93" data-name="Path 93" d="M81.084,36.652c-1.493.851-1.641,2.193-.23,2.962a5.758,5.758,0,0,0,5.169-.115c1.477-.851,1.641-2.193.213-2.978a5.726,5.726,0,0,0-5.153.131Z" fill="#16a89f"/>
      <path id="Path_94" data-name="Path 94" d="M106.356,34.394l-3.282-.082v.818L56.222,8.181a2.764,2.764,0,0,0-2.478,0l-18.626,10.8.181-.213-3.446-.442v2.945a.77.77,0,0,0,.459.671L81.986,50.561a2.781,2.781,0,0,0,2.462,0l21.333-12.288a.946.946,0,0,0,.558-.769Z" fill="#0a8074"/>
      <path id="Path_95" data-name="Path 95" d="M105.9,33.789,88.8,23.971,86.6,23.5,73.945,16.248l-.591-1.178L56.222,5.252a2.764,2.764,0,0,0-2.478,0L32.411,17.541c-.706.409-.755,1.047-.1,1.423L81.987,47.55a2.731,2.731,0,0,0,2.461,0l21.334-12.288C106.5,34.8,106.553,34.165,105.9,33.789Z" fill="#16a89f"/>
      <path id="Path_96" data-name="Path 96" d="M98.774,33.249l.2-.114c.656-.376.673-.965,0-1.342L59.028,8.787a2.583,2.583,0,0,0-2.347,0H56.55a2.583,2.583,0,0,1-2.347,0,2.583,2.583,0,0,0-2.347,0L38.729,16.33c-.64.376-.656.982,0,1.342a.712.712,0,0,1,0,1.342l-.181.115c-.656.376-.673.982,0,1.342l39.91,23.137a2.567,2.567,0,0,0,2.314,0l.23-.131a2.517,2.517,0,0,1,2.314,0l.525.295a2.632,2.632,0,0,0,2.347,0l13.03-7.51c.656-.376.673-.965,0-1.342l-.443-.327A.7.7,0,0,1,98.774,33.249Z" fill="#bafffb"/>
      <path id="Path_97" data-name="Path 97" d="M75.012,29.813c4.677-2.684,5.809-6.414,2.527-8.3s-9.748-1.244-14.425,1.44-5.809,6.414-2.511,8.312S70.335,32.513,75.012,29.813Z" fill="#16a89f"/>
      <path id="Path_98" data-name="Path 98" d="M52.037,16.543c-1.477.851-1.641,2.176-.213,2.962a5.676,5.676,0,0,0,5.153-.131c1.477-.851,1.641-2.176.213-2.962a5.676,5.676,0,0,0-5.153.131Z" fill="#16a89f"/>
      <path id="Path_99" data-name="Path 99" d="M81.084,33.265c-1.493.851-1.641,2.176-.23,2.962a5.709,5.709,0,0,0,5.169-.131c1.477-.851,1.641-2.176.213-2.962a5.677,5.677,0,0,0-5.153.131Z" fill="#16a89f"/>
      <path id="Path_100" data-name="Path 100" d="M62,49.235l-9.781-5.629V30.467L62,36.1Z" fill="#d1d3d4"/>
      <path id="Path_101" data-name="Path 101" d="M64.838,50.871,62,49.235V36.1l2.839,1.636Z" fill="#ff8400"/>
      <path id="Path_102" data-name="Path 102" d="M52.218,43.606l-2.839-1.62V28.847l2.839,1.62Z" fill="#ff8400"/>
      <path id="Path_103" data-name="Path 103" d="M85.991,22.286,76.21,16.657,52.218,30.467,62,36.1Z" fill="#fff"/>
      <path id="Path_104" data-name="Path 104" d="M88.83,23.922l-2.839-1.636L62,36.1l2.839,1.636Z" fill="#ff9d26"/>
      <path id="Path_105" data-name="Path 105" d="M76.21,16.657l-2.839-1.636L49.379,28.831l2.839,1.636Z" fill="#ff9d26"/>
      <path id="Path_106" data-name="Path 106" d="M52.513,77.771a3.289,3.289,0,0,1-1.756-.442L1.067,48.662A1.963,1.963,0,0,1,0,46.944a2.127,2.127,0,0,1,1.182-1.9L22.515,32.758a4.113,4.113,0,0,1,3.709,0L75.9,61.409a1.979,1.979,0,0,1,1.083,1.636A2.127,2.127,0,0,1,75.8,64.927L54.466,77.215A4.062,4.062,0,0,1,52.513,77.771Z" opacity="0.3"/>
      <path id="Path_107" data-name="Path 107" d="M75.8,60.051l-3.282-.082v.818L25.6,33.838a2.781,2.781,0,0,0-2.462,0L4.5,44.637l.2-.213-3.463-.458v2.962a.8.8,0,0,0,.459.671L51.381,76.135a2.78,2.78,0,0,0,2.462,0L75.176,63.847c.377-.229.574-.507.558-.769Z" fill="#0a8074"/>
      <path id="Path_108" data-name="Path 108" d="M75.291,59.429,25.6,30.827a2.731,2.731,0,0,0-2.462,0L1.805,43.116c-.706.409-.755,1.047-.1,1.424L51.381,73.19a2.665,2.665,0,0,0,2.462,0L75.176,60.9C75.9,60.444,75.931,59.773,75.291,59.429Z" fill="#16a89f"/>
      <path id="Path_109" data-name="Path 109" d="M68.136,58.905l.213-.115c.64-.376.656-.982,0-1.342L28.406,34.443a2.584,2.584,0,0,0-2.347,0h-.115a2.583,2.583,0,0,1-2.347,0,2.55,2.55,0,0,0-2.33,0L8.14,41.97c-.656.376-.673.982,0,1.358a.715.715,0,0,1,0,1.342l-.2.1c-.656.393-.656.982,0,1.358L47.9,69.263a2.649,2.649,0,0,0,2.33,0l.213-.131a2.649,2.649,0,0,1,2.33,0l.509.311a2.633,2.633,0,0,0,2.347,0l13.03-7.511c.656-.376.673-.965,0-1.342l-.542-.311A.732.732,0,0,1,68.136,58.905Z" fill="#bafffb"/>
      <path id="Path_110" data-name="Path 110" d="M44.407,55.469c4.677-2.7,5.809-6.414,2.511-8.3s-9.748-1.26-14.425,1.44-5.793,6.414-2.511,8.3S39.7,58.136,44.407,55.469Z" fill="#16a89f"/>
      <path id="Path_111" data-name="Path 111" d="M21.416,42.183c-1.477.867-1.641,2.193-.213,2.978a5.726,5.726,0,0,0,5.153-.115c1.493-.851,1.641-2.176.23-2.962a5.758,5.758,0,0,0-5.169.1Z" fill="#16a89f"/>
      <path id="Path_112" data-name="Path 112" d="M50.462,58.905c-1.477.867-1.641,2.193-.213,2.978a5.726,5.726,0,0,0,5.153-.131c1.493-.851,1.641-2.176.213-2.962a5.725,5.725,0,0,0-5.153.114Z" fill="#16a89f"/>
      <path id="Path_113" data-name="Path 113" d="M75.8,56.647H72.518v.8l-46.917-27a2.666,2.666,0,0,0-2.462,0L4.5,41.234l.2-.213-3.463-.442v2.945a.8.8,0,0,0,.459.687L51.381,72.863a2.731,2.731,0,0,0,2.462,0L75.176,60.574a.9.9,0,0,0,.624-.8Z" fill="#0a8074"/>
      <path id="Path_114" data-name="Path 114" d="M75.291,56.042,25.6,27.44a2.731,2.731,0,0,0-2.462,0L1.805,39.712c-.706.409-.755,1.047-.1,1.424L51.381,69.8a2.731,2.731,0,0,0,2.462,0L75.176,57.515C75.9,57.04,75.931,56.5,75.291,56.042Z" fill="#16a89f"/>
      <path id="Path_115" data-name="Path 115" d="M68.136,55.5l.213-.114c.64-.376.656-.965,0-1.342L28.406,31.04a2.584,2.584,0,0,0-2.347,0h-.115a2.583,2.583,0,0,1-2.347,0,2.6,2.6,0,0,0-2.33,0L8.14,38.583c-.656.376-.673.982,0,1.342a.715.715,0,0,1,0,1.342l-.2.114c-.656.376-.656.982,0,1.342L47.9,65.876a2.649,2.649,0,0,0,2.33,0l.213-.131a2.6,2.6,0,0,1,2.33,0l.509.294a2.583,2.583,0,0,0,2.347,0l13.03-7.494c.656-.376.673-.982,0-1.358l-.542-.311A.732.732,0,0,1,68.136,55.5Z" fill="#bafffb"/>
      <path id="Path_116" data-name="Path 116" d="M44.407,52.066c4.677-2.7,5.809-6.4,2.511-8.3s-9.748-1.244-14.425,1.44-5.793,6.381-2.511,8.312S39.7,54.766,44.407,52.066Z" fill="#16a89f"/>
      <path id="Path_117" data-name="Path 117" d="M21.416,38.8c-1.477.851-1.641,2.176-.213,2.962a5.725,5.725,0,0,0,5.153-.115c1.493-.851,1.641-2.193.23-2.962a5.709,5.709,0,0,0-5.169.114Z" fill="#16a89f"/>
      <path id="Path_118" data-name="Path 118" d="M50.462,55.518c-1.477.851-1.641,2.176-.213,2.962a5.775,5.775,0,0,0,5.153-.115c1.493-.867,1.641-2.193.213-2.978a5.676,5.676,0,0,0-5.153.131Z" fill="#16a89f"/>
      <path id="Path_119" data-name="Path 119" d="M75.8,53.228l-3.282-.082v.818L25.6,27.047a2.715,2.715,0,0,0-2.462,0L4.5,37.847l.2-.2-3.463-.442v2.929a.8.8,0,0,0,.459.671L51.381,69.426a2.682,2.682,0,0,0,2.462,0L75.176,57.138a.9.9,0,0,0,.558-.769Z" fill="#0a8074"/>
      <path id="Path_120" data-name="Path 120" d="M75.291,52.655,25.6,24.053a2.731,2.731,0,0,0-2.462,0L1.805,36.341c-.706.409-.755,1.047-.1,1.424L51.381,66.416a2.666,2.666,0,0,0,2.462,0L75.176,54.127C75.9,53.669,75.931,53.031,75.291,52.655Z" fill="#16a89f"/>
      <path id="Path_121" data-name="Path 121" d="M68.136,52.131l.213-.115c.64-.376.656-.982,0-1.342L28.406,27.669a2.583,2.583,0,0,0-2.347,0h-.115a2.583,2.583,0,0,1-2.347,0,2.55,2.55,0,0,0-2.33,0L8.14,35.2c-.656.376-.673.982,0,1.358a.715.715,0,0,1,0,1.342l-.2.1a.719.719,0,0,0,0,1.358L47.9,62.489a2.649,2.649,0,0,0,2.33,0l.213-.131a2.6,2.6,0,0,1,2.33,0l.509.311a2.632,2.632,0,0,0,2.347,0l13.03-7.51c.656-.376.673-.982,0-1.342l-.542-.311A.732.732,0,0,1,68.136,52.131Z" fill="#bafffb"/>
      <path id="Path_122" data-name="Path 122" d="M44.407,48.7c4.677-2.7,5.809-6.414,2.511-8.312s-9.748-1.243-14.425,1.456-5.793,6.48-2.511,8.3S39.7,51.379,44.407,48.7Z" fill="#16a89f"/>
      <path id="Path_123" data-name="Path 123" d="M21.416,35.425c-1.477.851-1.641,2.176-.213,2.962a5.676,5.676,0,0,0,5.153-.131c1.493-.851,1.641-2.176.23-2.962a5.709,5.709,0,0,0-5.169.131Z" fill="#16a89f"/>
      <path id="Path_124" data-name="Path 124" d="M50.462,52.131c-1.477.851-1.641,2.192-.213,2.978a5.726,5.726,0,0,0,5.153-.131c1.493-.851,1.641-2.176.213-2.978a5.775,5.775,0,0,0-5.153.131Z" fill="#16a89f"/>
      <path id="Path_125" data-name="Path 125" d="M75.8,49.955l-3.282-.082v.818L25.6,23.66a2.732,2.732,0,0,0-2.462,0L4.5,34.46l.2-.213-3.463-.442v2.962a.835.835,0,0,0,.459.671l49.691,28.6a2.781,2.781,0,0,0,2.462,0L75.176,53.751a.917.917,0,0,0,.558-.769Z" fill="#0a8074"/>
      <path id="Path_126" data-name="Path 126" d="M75.291,49.268l-17.1-9.818-2.2-.475L43.34,31.727l-.607-1.162L25.6,20.748a2.715,2.715,0,0,0-2.462,0L1.805,33.036c-.706.409-.755,1.047-.1,1.424L51.381,63.045a2.731,2.731,0,0,0,2.462,0L75.176,50.773C75.9,50.282,75.931,49.644,75.291,49.268Z" fill="#16a89f"/>
      <path id="Path_127" data-name="Path 127" d="M68.136,48.728l.213-.115c.64-.376.656-.965,0-1.342L28.406,24.266a2.584,2.584,0,0,0-2.347,0h-.115a2.583,2.583,0,0,1-2.347,0,2.6,2.6,0,0,0-2.33,0L8.14,31.809c-.656.376-.673.982,0,1.342a.715.715,0,0,1,0,1.342l-.2.114c-.656.376-.656.982,0,1.342L47.9,59.085a2.6,2.6,0,0,0,2.33,0l.213-.131a2.55,2.55,0,0,1,2.33,0l.509.295a2.583,2.583,0,0,0,2.347,0l13.03-7.51c.656-.376.673-.965,0-1.342l-.542-.311C67.48,49.71,67.5,49.1,68.136,48.728Z" fill="#bafffb"/>
      <path id="Path_128" data-name="Path 128" d="M44.407,45.292c4.677-2.683,5.809-6.414,2.511-8.3s-9.748-1.244-14.425,1.44S26.7,44.85,29.982,46.682,39.7,47.992,44.407,45.292Z" fill="#16a89f"/>
      <path id="Path_129" data-name="Path 129" d="M21.416,31.956c-1.477.851-1.641,2.176-.213,2.962a5.726,5.726,0,0,0,5.153-.115c1.493-.867,1.641-2.193.23-2.978a5.759,5.759,0,0,0-5.169.131Z" fill="#16a89f"/>
      <path id="Path_130" data-name="Path 130" d="M50.462,48.744c-1.477.851-1.641,2.176-.213,2.962a5.676,5.676,0,0,0,5.153-.114c1.493-.851,1.641-2.176.213-2.962a5.676,5.676,0,0,0-5.153.115Z" fill="#16a89f"/>
      <path id="Path_131" data-name="Path 131" d="M31.377,64.73,21.6,59.085V45.946l9.781,5.629Z" fill="#d1d3d4"/>
      <path id="Path_132" data-name="Path 132" d="M34.216,66.35l-2.839-1.62V51.575l2.839,1.636Z" fill="#ff8400"/>
      <path id="Path_133" data-name="Path 133" d="M21.6,59.085l-2.823-1.62V44.326l2.823,1.62Z" fill="#ff8400"/>
      <path id="Path_134" data-name="Path 134" d="M55.385,37.765,45.6,32.136,21.6,45.946l9.781,5.629Z" fill="#fff"/>
      <path id="Path_135" data-name="Path 135" d="M58.208,39.4l-2.823-1.636L31.377,51.575l2.839,1.636Z" fill="#ff9d26"/>
      <path id="Path_136" data-name="Path 136" d="M45.6,32.136,42.765,30.5,18.773,44.326l2.823,1.62Z" fill="#ff9d26"/>
      <path id="Path_137" data-name="Path 137" d="M18.987,77.444a15.052,15.052,0,0,1-7.4-1.784,4.741,4.741,0,0,1,0-8.934,16.453,16.453,0,0,1,14.769,0,4.741,4.741,0,0,1,0,8.934A15.068,15.068,0,0,1,18.987,77.444Z" opacity="0.3"/>
      <path id="Path_138" data-name="Path 138" d="M28.554,69.1a6.935,6.935,0,0,0-2.33-2.062,15.96,15.96,0,0,0-14.458,0,6.393,6.393,0,0,0-2.511,2.356L8.78,69.1v2.127A5.041,5.041,0,0,0,11.8,75.35a15.959,15.959,0,0,0,14.457,0,5.09,5.09,0,0,0,2.987-4.042V69Z" fill="#ba6000"/>
      <path id="Path_139" data-name="Path 139" d="M26.224,64.927c3.988,2.307,3.988,6.021,0,8.329a16.075,16.075,0,0,1-14.458,0c-3.988-2.307-3.988-6.021,0-8.329a16.075,16.075,0,0,1,14.458,0Z" fill="#ff9d26"/>
      <path id="Path_140" data-name="Path 140" d="M24.927,65.81a12.751,12.751,0,0,0-11.569,0c-3.184,1.833-3.184,4.811,0,6.66a12.866,12.866,0,0,0,11.569,0C28.045,70.621,28.045,67.643,24.927,65.81Zm-1.017,6.07a10.464,10.464,0,0,1-9.452,0c-2.658-1.505-2.658-3.927-.082-5.449a10.464,10.464,0,0,1,9.452,0c2.609,1.522,2.609,3.943,0,5.449Z" fill="#ba6000"/>
      <path id="Path_141" data-name="Path 141" d="M24.927,65.434a12.866,12.866,0,0,0-11.569,0c-3.184,1.833-3.184,4.827,0,6.66a12.866,12.866,0,0,0,11.569,0C28.045,70.261,28.045,67.267,24.927,65.434ZM23.91,71.5a10.464,10.464,0,0,1-9.452,0c-2.609-1.489-2.609-3.943,0-5.432a10.464,10.464,0,0,1,9.452,0c2.527,1.489,2.527,3.943-.082,5.432Z" fill="#ff8400"/>
      <path id="Path_142" data-name="Path 142" d="M22.6,70.588a1.473,1.473,0,0,0,.689-1V68.9h-.23a1.526,1.526,0,0,0-.492-.393,4.2,4.2,0,0,0-3.479-.115c-1.149.295-1.641.376-2.035.18s-.345-.425.3-.8a5.837,5.837,0,0,1,1.756-.622V66.5l-.821-.147a6.464,6.464,0,0,0-1.756.638l-.87-.507-.968-.1v.654l.935.54a2.51,2.51,0,0,0-.41.458l-.23-.082v.687a1.129,1.129,0,0,0,.689.949,4.508,4.508,0,0,0,3.561,0c.985-.278,1.543-.311,1.9-.1s.23.573-.328.9-1.493-.082-2.068,0v.655l.853.834a7.631,7.631,0,0,0,2.051-.654l.935.54.968-.556v-.655Z" fill="#ba6000"/>
      <path id="Path_143" data-name="Path 143" d="M22.63,71.079l-.985-.54a7.627,7.627,0,0,1-2.1.72l-.853-.835a6.841,6.841,0,0,0,2.068-.687c.558-.327.722-.671.328-.9s-.919-.18-1.9.115a4.575,4.575,0,0,1-3.561,0c-.87-.491-.935-1.227-.1-1.964l-.935-.54.968-.556.87.507a6.46,6.46,0,0,1,1.756-.638l.821.8a5.835,5.835,0,0,0-1.756.622c-.64.376-.574.655-.3.8s.886.114,2.035-.18a4.261,4.261,0,0,1,3.479.115c.886.491,1.017,1.293,0,2.062l1,.573Z" fill="#ff8400"/>
      <path id="Path_144" data-name="Path 144" d="M28.9,66.579a6.706,6.706,0,0,0-2.33-2.062,15.959,15.959,0,0,0-14.458,0A6.277,6.277,0,0,0,9.6,66.874l-.492-.295v2.094a5.057,5.057,0,0,0,3.02,4.189,15.96,15.96,0,0,0,14.441,0,5.123,5.123,0,0,0,2.987-4.042v-2.34Z" fill="#ba6000"/>
      <path id="Path_145" data-name="Path 145" d="M26.568,62.407c3.988,2.307,3.988,6.021,0,8.329a16.075,16.075,0,0,1-14.458,0c-4-2.307-4-6.021,0-8.329a16.075,16.075,0,0,1,14.458,0Z" fill="#ff9d26"/>
      <path id="Path_146" data-name="Path 146" d="M25.206,63.291a12.751,12.751,0,0,0-11.569,0c-3.184,1.833-3.184,4.811,0,6.643a12.751,12.751,0,0,0,11.569,0C28.39,68.1,28.39,65.123,25.206,63.291Zm-1.017,6.07a10.563,10.563,0,0,1-9.452,0c-2.609-1.505-2.609-3.943,0-5.449a10.464,10.464,0,0,1,9.452,0C26.8,65.418,26.8,67.856,24.189,69.361Z" fill="#ba6000"/>
      <path id="Path_147" data-name="Path 147" d="M25.206,62.914a12.866,12.866,0,0,0-11.569,0c-3.184,1.833-3.184,4.811,0,6.66a12.866,12.866,0,0,0,11.569,0C28.39,67.725,28.39,64.681,25.206,62.914Zm-1.017,6.071a10.464,10.464,0,0,1-9.452,0c-2.609-1.505-2.609-3.943,0-5.432a10.464,10.464,0,0,1,9.452,0C26.8,65.041,26.8,67.479,24.189,68.985Z" fill="#ff8400"/>
      <path id="Path_148" data-name="Path 148" d="M22.942,68.068a1.539,1.539,0,0,0,.656-1.014v-.736h-.246a1.639,1.639,0,0,0-.476-.393A4.2,4.2,0,0,0,19.4,65.81c-1.165.295-1.641.376-2.035.18s-.345-.425.3-.8a5.838,5.838,0,0,1,1.756-.507v-.654l-.837-.147a6.05,6.05,0,0,0-1.74.638l-.87-.507-.886-.114v.654l.935.54a2.509,2.509,0,0,0-.41.458l-.2-.131v.687a1.178,1.178,0,0,0,.689.965,4.639,4.639,0,0,0,3.578,0c.985-.278,1.526-.311,1.9-.1s.23.573-.328.9-1.493-.1-2.068,0v.655l.853.834a7.63,7.63,0,0,0,2.1-.72l.935.54.968-.556v-.671Z" fill="#ba6000"/>
      <path id="Path_149" data-name="Path 149" d="M22.991,68.559l-.935-.605a7.63,7.63,0,0,1-2.1.72l-.853-.72a6.841,6.841,0,0,0,2.068-.687c.558-.327.722-.671.328-.9s-.919-.18-1.9.1a4.558,4.558,0,0,1-3.578,0c-.853-.491-.935-1.244,0-1.963l-.935-.605.968-.556.87.507a6.576,6.576,0,0,1,1.74-.638l.837.8a5.837,5.837,0,0,0-1.756.622c-.64.376-.574.654-.3.8s.87.115,2.035-.18a4.261,4.261,0,0,1,3.479.115c.886.491,1,1.293,0,2.045L23.976,68Z" fill="#ff8400"/>
      <path id="Path_150" data-name="Path 150" d="M28.21,64.272a6.8,6.8,0,0,0-2.33-2.078,16.075,16.075,0,0,0-14.457,0,6.555,6.555,0,0,0-2.494,2.373l-.492-.311v2.062a5.073,5.073,0,0,0,2.987,4.156,15.959,15.959,0,0,0,14.457,0,5.107,5.107,0,0,0,2.987-4.042V64.174Z" fill="#ba6000"/>
      <path id="Path_151" data-name="Path 151" d="M25.863,60.1c4,2.291,4,6.021,0,8.312a15.96,15.96,0,0,1-14.458,0c-3.988-2.291-3.988-6.021,0-8.312a15.96,15.96,0,0,1,14.458,0Z" fill="#ff9d26"/>
      <path id="Path_152" data-name="Path 152" d="M24.484,60.967a12.834,12.834,0,0,0-11.487,0c-3.2,1.833-3.2,4.909,0,6.66a12.833,12.833,0,0,0,11.487,0C27.684,65.794,27.684,62.8,24.484,60.967Zm-1,6.071a10.464,10.464,0,0,1-9.452,0c-2.609-1.489-2.609-3.927,0-5.432a10.464,10.464,0,0,1,9.452,0C26.093,63.045,26.093,65.549,23.483,67.038Z" fill="#ba6000"/>
      <path id="Path_153" data-name="Path 153" d="M24.484,60.607a12.718,12.718,0,0,0-11.487,0c-3.2,1.833-3.2,4.811,0,6.66a12.834,12.834,0,0,0,11.487,0C27.684,65.418,27.684,62.44,24.484,60.607Zm-1,6.071a10.464,10.464,0,0,1-9.452,0c-2.609-1.505-2.609-3.943,0-5.449a10.464,10.464,0,0,1,9.452,0C26.093,62.734,26.093,65.172,23.483,66.678Z" fill="#ff8400"/>
      <path id="Path_154" data-name="Path 154" d="M22.236,65.761a1.456,1.456,0,0,0,.64-1.014v-.7h-.23a1.965,1.965,0,0,0-.476-.393,4.36,4.36,0,0,0-3.5-.115c-1.149.311-1.641.376-2.018.2s-.345-.425.3-.8a5.774,5.774,0,0,1,1.74-.622v-.654l-.82-.147a6,6,0,0,0-1.756.622l-.87-.491-.968-.1v.655l.952.54a2.178,2.178,0,0,0-.427.458l-.181-.147v.687a1.129,1.129,0,0,0,.689.949,4.557,4.557,0,0,0,3.577,0c.968-.278,1.526-.327,1.9-.114s.23.589-.345.9-1.493-.082-2.068,0v.851l.853.818a6.907,6.907,0,0,0,2.1-.818l.935.524,1.017-.524v-.655Z" fill="#ba6000"/>
      <path id="Path_155" data-name="Path 155" d="M22.269,66.318l-.935-.524a6.9,6.9,0,0,1-2.1.7l-.87-.916a6.036,6.036,0,0,0,2.068-.687c.574-.311.739-.654.345-.884s-.935-.18-1.9.1a4.558,4.558,0,0,1-3.577,0c-.87-.491-.935-1.244,0-1.964l-.952-.54.968-.556.87.491a6.578,6.578,0,0,1,1.756-.622l.82.8a5.774,5.774,0,0,0-1.74.622c-.64.36-.574.654-.3.8s.87.115,2.019-.2a4.36,4.36,0,0,1,3.5.115c.87.507,1,1.293,0,2.062l1,.573Z" fill="#ff8400"/>
      <path id="Path_156" data-name="Path 156" d="M29.145,61.752a6.739,6.739,0,0,0-2.314-2.078,16.075,16.075,0,0,0-14.457,0,6.556,6.556,0,0,0-2.511,2.356l-.492-.295v2.111a5.057,5.057,0,0,0,3,4.107,16.075,16.075,0,0,0,14.457,0,5.173,5.173,0,0,0,3.02-3.993V61.638Z" fill="#ba6000"/>
      <path id="Path_157" data-name="Path 157" d="M26.831,57.58c3.988,2.291,3.988,6.021,0,8.312a15.959,15.959,0,0,1-14.457,0c-4-2.291-4-6.021,0-8.312a15.959,15.959,0,0,1,14.457,0Z" fill="#ff9d26"/>
      <path id="Path_158" data-name="Path 158" d="M25.453,58.447a12.866,12.866,0,0,0-11.487,0c-3.184,1.833-3.184,4.909,0,6.659a12.866,12.866,0,0,0,11.487,0C28.636,63.274,28.636,60.28,25.453,58.447Zm-1.017,6.07a10.464,10.464,0,0,1-9.452,0c-2.609-1.505-2.609-3.943,0-5.432a10.464,10.464,0,0,1,9.452,0C27.044,60.574,27.044,63.045,24.435,64.518Z" fill="#ba6000"/>
      <path id="Path_159" data-name="Path 159" d="M25.453,58.136a12.866,12.866,0,0,0-11.487,0c-3.184,1.849-3.184,4.827,0,6.66a12.75,12.75,0,0,0,11.487,0C28.636,62.9,28.636,59.92,25.453,58.136Zm-1.017,6.087a10.463,10.463,0,0,1-9.452,0c-2.609-1.505-2.609-3.943,0-5.449a10.464,10.464,0,0,1,9.452,0c2.609,1.44,2.609,3.878,0,5.383Z" fill="#ff8400"/>
      <path id="Path_160" data-name="Path 160" d="M23.188,63.242a1.538,1.538,0,0,0,.656-1.014v-.7h-.23a2,2,0,0,0-.492-.393,4.327,4.327,0,0,0-3.479-.114c-1.149.311-1.641.393-2.035.2s-.345-.442.3-.8a5.837,5.837,0,0,1,1.756-.638v-.654l-.837-.147a5.937,5.937,0,0,0-1.74.622l-.87-.491-.968-.1v.769l.935.54a1.752,1.752,0,0,0-.41.458l-.181-.131v.687a1.113,1.113,0,0,0,.673.949,4.559,4.559,0,0,0,3.577,0c.985-.278,1.526-.327,1.9-.115s.23.573-.328.9-1.493-.082-2.068,0V63.7l.853.835a6.677,6.677,0,0,0,2.1-.72l.935.54.968-.556v-.654Z" fill="#ba6000"/>
      <path id="Path_161" data-name="Path 161" d="M23.286,63.716l-.935-.54a6.674,6.674,0,0,1-2.1.72l-.9-.851a6.462,6.462,0,0,0,2.068-.7c.558-.311.722-.671.328-.884s-.919-.18-1.9.1a4.559,4.559,0,0,1-3.577,0c-.853-.507-.935-1.244,0-1.963l-.935-.54L16.3,58.5l.87.491a5.933,5.933,0,0,1,1.74-.622l.837.8a5.838,5.838,0,0,0-1.756.622c-.64.36-.574.638-.3.8s.886.114,2.035-.2a4.328,4.328,0,0,1,3.479.115c.886.507,1.017,1.293,0,2.062l1.017.573Z" fill="#ff8400"/>
      <path id="Path_162" data-name="Path 162" d="M27.569,59.1a6.657,6.657,0,0,0-2.33-2.078,16.075,16.075,0,0,0-14.458,0A6.557,6.557,0,0,0,8.287,59.4l-.492-.311V61.2a5.073,5.073,0,0,0,2.987,4.156,16.075,16.075,0,0,0,14.458,0,5.106,5.106,0,0,0,2.97-4.042V58.987Z" fill="#ba6000"/>
      <path id="Path_163" data-name="Path 163" d="M25.239,54.864c3.988,2.291,3.988,6.021,0,8.329a16.075,16.075,0,0,1-14.457,0c-3.906-2.242-3.906-5.972,0-8.329a15.959,15.959,0,0,1,14.457,0Z" fill="#ff9d26"/>
      <path id="Path_164" data-name="Path 164" d="M23.861,55.8a12.834,12.834,0,0,0-11.487,0c-3.282,1.849-3.282,4.909,0,6.66a12.834,12.834,0,0,0,11.487,0C27.061,60.623,27.061,57.646,23.861,55.8Zm-1,6.07a10.5,10.5,0,0,1-9.469,0c-2.593-1.489-2.593-3.927,0-5.432a10.5,10.5,0,0,1,9.469,0C25.469,57.94,25.469,60.378,22.86,61.867Z" fill="#ba6000"/>
      <path id="Path_165" data-name="Path 165" d="M23.861,55.437a12.718,12.718,0,0,0-11.487,0c-3.282,1.833-3.282,4.811,0,6.643a12.718,12.718,0,0,0,11.487,0C27.061,60.247,27.061,57.269,23.861,55.437Zm-1,6.07a10.5,10.5,0,0,1-9.469,0c-2.593-1.505-2.593-3.943,0-5.449a10.6,10.6,0,0,1,9.469,0C25.469,57.564,25.469,60,22.86,61.507Z" fill="#ff8400"/>
      <path id="Path_166" data-name="Path 166" d="M21.645,60.591a1.455,1.455,0,0,0,.64-1.014v-.7h-.23a1.967,1.967,0,0,0-.476-.393,4.361,4.361,0,0,0-3.5-.115c-1.149.311-1.641.393-2.018.2s-.345-.442.3-.8a5.686,5.686,0,0,1,1.756-.622V56.5l-.837-.147a6,6,0,0,0-1.756.622l-.87-.491-1,.016v.655l.935.54a2.062,2.062,0,0,0-.41.458L14,58.022v.687a1.129,1.129,0,0,0,.689.949,4.558,4.558,0,0,0,3.578,0c.968-.278,1.526-.327,1.9-.1s.23.573-.345.884-1.493,0-2.068,0v.671l.853.834a7.627,7.627,0,0,0,2.1-.72l.935.524.968-.556v-.638Z" fill="#ba6000"/>
      <path id="Path_167" data-name="Path 167" d="M21.645,61.065l-.935-.54a6.674,6.674,0,0,1-2.1.72l-.853-.834a6.036,6.036,0,0,0,2.068-.638c.574-.311.738-.671.345-.9s-.935-.164-1.9.115a4.558,4.558,0,0,1-3.578,0c-.87-.491-.935-1.244-.1-1.964l-.935-.524.968-.556.87.491a6.578,6.578,0,0,1,1.756-.622l.837.8a5.691,5.691,0,0,0-1.756.622c-.64.36-.574.638-.3.8s.87.114,2.018-.2a4.36,4.36,0,0,1,3.5.115c.87.507,1,1.293,0,2.062l1,.589Z" fill="#ff8400"/>
      <path id="Path_168" data-name="Path 168" d="M36.841,85.805a15.051,15.051,0,0,1-7.4-1.767,4.725,4.725,0,0,1,0-8.934,16.453,16.453,0,0,1,14.769,0,4.725,4.725,0,0,1,0,8.934A15.05,15.05,0,0,1,36.841,85.805Z" opacity="0.3"/>
      <path id="Path_169" data-name="Path 169" d="M46.392,77.477a6.558,6.558,0,0,0-2.33-2.062,15.959,15.959,0,0,0-14.458,0,6.442,6.442,0,0,0-2.494,2.356l-.492-.311v2.111A5.073,5.073,0,0,0,29.6,83.728a15.959,15.959,0,0,0,14.458,0,5.107,5.107,0,0,0,3-4.042V77.379Z" fill="#ba6000"/>
      <path id="Path_170" data-name="Path 170" d="M44.062,73.3c4,2.307,4,6.021,0,8.329a16.075,16.075,0,0,1-14.458,0c-3.988-2.307-3.988-6.021,0-8.329a16.075,16.075,0,0,1,14.458,0Z" fill="#ff9d26"/>
      <path id="Path_171" data-name="Path 171" d="M42.7,74.188a12.752,12.752,0,0,0-11.487,0c-3.282,1.833-3.282,4.811,0,6.643a12.752,12.752,0,0,0,11.487,0C45.883,79,45.883,76.021,42.7,74.188Zm-1.017,6.071a10.563,10.563,0,0,1-9.452,0c-2.609-1.505-2.609-3.943,0-5.449a10.464,10.464,0,0,1,9.452,0C44.292,76.315,44.292,78.753,41.682,80.259Z" fill="#ba6000"/>
      <path id="Path_172" data-name="Path 172" d="M42.7,73.812a12.866,12.866,0,0,0-11.487,0c-3.282,1.833-3.282,4.811,0,6.66a12.866,12.866,0,0,0,11.487,0C45.883,78.622,45.883,75.644,42.7,73.812Zm-1.017,6.071a10.464,10.464,0,0,1-9.452,0c-2.609-1.505-2.609-3.943,0-5.432a10.464,10.464,0,0,1,9.452,0C44.292,75.939,44.292,78.377,41.682,79.882Z" fill="#ff8400"/>
      <path id="Path_173" data-name="Path 173" d="M40.435,78.966a1.538,1.538,0,0,0,.656-1.015v-.687h-.246a1.642,1.642,0,0,0-.476-.393,4.2,4.2,0,0,0-3.479-.114c-1.165.294-1.641.376-2.035.18s-.345-.425.3-.8a5.691,5.691,0,0,1,1.756-.622v-.654l-.837-.147a6.661,6.661,0,0,0-1.756.638l-.87-.507-.952-.1V75.4l.935.54a2.506,2.506,0,0,0-.41.458l-.2-.131v.687a1.129,1.129,0,0,0,.689.949,4.559,4.559,0,0,0,3.577,0c.968-.278,1.526-.311,1.9-.1s.23.573-.328.9-1.493,0-2.084,0v.7l.87.835a7.81,7.81,0,0,0,2.1-.72l.935.54.952-.556v-.654Z" fill="#ba6000"/>
      <path id="Path_174" data-name="Path 174" d="M40.485,79.408l-.935-.54a7.808,7.808,0,0,1-2.1.72l-.87-.835a6.926,6.926,0,0,0,2.084-.687c.558-.327.722-.671.328-.9s-.935-.18-1.9.115a4.706,4.706,0,0,1-3.577,0c-.87-.507-.935-1.26,0-1.98l-.935-.54.952-.556.87.507a6.658,6.658,0,0,1,1.756-.638l.837.8a5.69,5.69,0,0,0-1.756.622c-.64.376-.574.654-.3.8s.87.115,2.035-.18a4.2,4.2,0,0,1,3.479.115c.87.491,1,1.293,0,2.062l1,.573Z" fill="#ff8400"/>
      <path id="Path_175" data-name="Path 175" d="M46.753,74.957a6.771,6.771,0,0,0-2.33-2.094,15.959,15.959,0,0,0-14.458,0,6.441,6.441,0,0,0-2.494,2.356l-.492-.311v2.111a5.073,5.073,0,0,0,2.987,4.156,15.959,15.959,0,0,0,14.458,0,5.106,5.106,0,0,0,2.987-4.041V74.859Z" fill="#ba6000"/>
      <path id="Path_176" data-name="Path 176" d="M44.423,70.785c3.988,2.307,3.988,6.021,0,8.329a16.075,16.075,0,0,1-14.458,0c-3.988-2.307-3.988-6.021,0-8.329a16.075,16.075,0,0,1,14.458,0Z" fill="#ff9d26"/>
      <path id="Path_177" data-name="Path 177" d="M42.979,71.668a12.718,12.718,0,0,0-11.487,0c-3.282,1.833-3.282,4.811,0,6.643a12.718,12.718,0,0,0,11.487,0C46.261,76.479,46.261,73.5,42.979,71.668Zm-.952,6.1a10.53,10.53,0,0,1-9.436,0c-2.609-1.505-2.609-3.943,0-5.449a10.415,10.415,0,0,1,9.436,0C44.62,73.8,44.62,76.233,42.027,77.771Z" fill="#ba6000"/>
      <path id="Path_178" data-name="Path 178" d="M42.979,71.226a12.834,12.834,0,0,0-11.487,0c-3.282,1.833-3.282,4.811,0,6.66a12.834,12.834,0,0,0,11.487,0C46.261,76.135,46.261,73.124,42.979,71.226ZM41.961,77.3a10.414,10.414,0,0,1-9.436,0c-2.609-1.505-2.609-3.943,0-5.432a10.414,10.414,0,0,1,9.436,0c2.659,1.554,2.659,3.992.066,5.5Z" fill="#ff8400"/>
      <path id="Path_179" data-name="Path 179" d="M40.8,76.446a1.505,1.505,0,0,0,.64-1.014v-.7h-.23a1.64,1.64,0,0,0-.476-.393,4.228,4.228,0,0,0-3.5-.115c-1.149.295-1.641.376-2.018.2s-.345-.442.3-.818a5.77,5.77,0,0,1,1.739-.622v-.655l-.821-.147a5.951,5.951,0,0,0-1.756.638l-.87-.507-.968-.1v.655l.935.54a2.51,2.51,0,0,0-.41.458l-.23-.065v.7a1.129,1.129,0,0,0,.689.949,4.559,4.559,0,0,0,3.577,0c.968-.278,1.526-.311,1.9-.1s.213.573-.345.884-1.493,0-2.068,0v.655l.853.835a7.451,7.451,0,0,0,2.1-.72l.935.54.968-.556v-.655Z" fill="#ba6000"/>
      <path id="Path_180" data-name="Path 180" d="M40.829,76.937l-.935-.54a7.447,7.447,0,0,1-2.1.72l-.853-.834a6.841,6.841,0,0,0,2.068-.687c.558-.327.738-.671.345-.9s-.935-.18-1.9.1a4.558,4.558,0,0,1-3.578,0c-.87-.491-.935-1.244-.1-1.964l-.935-.54.968-.556.87.507a6.463,6.463,0,0,1,1.74-.654l.82.8a5.771,5.771,0,0,0-1.739.622c-.64.376-.574.654-.3.8s.87.115,2.018-.18a4.228,4.228,0,0,1,3.5.115c.87.507,1,1.293,0,2.045l1,.589Z" fill="#ff8400"/>
      <path id="Path_181" data-name="Path 181" d="M46.048,72.437a6.967,6.967,0,0,0-2.33-2.078,16.075,16.075,0,0,0-14.458,0,6.556,6.556,0,0,0-2.511,2.356l-.492-.295V74.5a5.057,5.057,0,0,0,3,4.173,16.075,16.075,0,0,0,14.458,0A5.172,5.172,0,0,0,46.7,74.614V72.323Z" fill="#ba6000"/>
      <path id="Path_182" data-name="Path 182" d="M43.717,68.265c3.988,2.291,3.988,6.021,0,8.312a15.96,15.96,0,0,1-14.458,0c-3.988-2.291-3.988-6.021,0-8.312a15.96,15.96,0,0,1,14.458,0Z" fill="#ff9d26"/>
      <path id="Path_183" data-name="Path 183" d="M42.339,69.132a12.866,12.866,0,0,0-11.487,0c-3.184,1.833-3.184,4.811,0,6.66a12.867,12.867,0,0,0,11.487,0C45.539,73.943,45.539,70.965,42.339,69.132Zm-1,6.07a10.464,10.464,0,0,1-9.452,0c-2.609-1.505-2.609-3.943,0-5.432a10.464,10.464,0,0,1,9.452,0C43.931,71.227,43.931,73.7,41.338,75.2Z" fill="#ba6000"/>
      <path id="Path_184" data-name="Path 184" d="M42.339,68.756a12.867,12.867,0,0,0-11.487,0c-3.184,1.849-3.184,4.827,0,6.66a12.751,12.751,0,0,0,11.487,0C45.539,73.583,45.539,70.6,42.339,68.756Zm-1,6.087a10.563,10.563,0,0,1-9.452,0c-2.609-1.505-2.609-3.943,0-5.449a10.464,10.464,0,0,1,9.452,0C43.931,70.9,43.931,73.337,41.338,74.843Z" fill="#ff8400"/>
      <path id="Path_185" data-name="Path 185" d="M40.091,73.926a1.635,1.635,0,0,0,.64-1.015v-.7H40.5a1.738,1.738,0,0,0-.492-.393A4.327,4.327,0,0,0,36.53,71.7c-1.149.311-1.641.376-2.035.2s-.345-.442.3-.8a5.838,5.838,0,0,1,1.756-.622V69.8l-.821-.147a6.461,6.461,0,0,0-1.756.638L33.1,69.8l-.968-.1v.655l.935.54a1.751,1.751,0,0,0-.41.458l-.181-.131V71.9a1.129,1.129,0,0,0,.656.965,4.508,4.508,0,0,0,3.561,0c.985-.278,1.526-.327,1.9-.115s.23.573-.328.9-1.493,0-2.068,0V74.3l.853.835a6.678,6.678,0,0,0,2.133-.638l.935.54.968-.556v-.654Z" fill="#ba6000"/>
      <path id="Path_186" data-name="Path 186" d="M40.124,74.4l-.935-.54a6.676,6.676,0,0,1-2.1.72l-.853-.835a6.032,6.032,0,0,0,2.068-.687c.558-.327.722-.671.328-.9s-.919-.164-1.9.114a4.59,4.59,0,0,1-3.561,0c-.87-.507-.952-1.244-.1-1.964l-.935-.54.968-.556.87.491a6.461,6.461,0,0,1,1.756-.638l.821.8a6.577,6.577,0,0,0-1.756.638c-.64.36-.574.638-.3.8s.886.1,2.035-.2a4.261,4.261,0,0,1,3.479.115c.886.507,1.017,1.293.082,2.062l1,.573Z" fill="#ff8400"/>
      <path id="Path_187" data-name="Path 187" d="M46.048,70.048a6.934,6.934,0,0,0-2.33-2.094,15.96,15.96,0,0,0-14.458,0,6.392,6.392,0,0,0-2.511,2.356l-.492-.294V72.11a5.057,5.057,0,0,0,3,4.156,15.96,15.96,0,0,0,14.458,0A5.123,5.123,0,0,0,46.7,72.225V69.95Z" fill="#ba6000"/>
      <path id="Path_188" data-name="Path 188" d="M43.717,65.876c3.988,2.307,3.988,6.021,0,8.329a16.075,16.075,0,0,1-14.458,0c-3.988-2.307-3.988-6.021,0-8.329a16.075,16.075,0,0,1,14.458,0Z" fill="#ff9d26"/>
      <path id="Path_189" data-name="Path 189" d="M42.339,66.759a12.752,12.752,0,0,0-11.487,0c-3.184,1.833-3.184,4.811,0,6.643a12.751,12.751,0,0,0,11.487,0C45.539,71.57,45.539,68.592,42.339,66.759Zm-1,6.1a10.464,10.464,0,0,1-9.452,0c-2.609-1.505-2.609-3.943,0-5.449a10.464,10.464,0,0,1,9.452,0C43.931,68.887,43.931,71.325,41.338,72.863Z" fill="#ba6000"/>
      <path id="Path_190" data-name="Path 190" d="M42.339,66.318a12.867,12.867,0,0,0-11.487,0c-3.184,1.833-3.184,4.811,0,6.66a12.866,12.866,0,0,0,11.487,0C45.539,71.226,45.539,68.216,42.339,66.318Zm-1,6.136a10.464,10.464,0,0,1-9.452,0c-2.609-1.505-2.609-3.927,0-5.432a10.464,10.464,0,0,1,9.452,0C43.931,68.527,43.931,70.948,41.338,72.454Z" fill="#ff8400"/>
      <path id="Path_191" data-name="Path 191" d="M40.09,71.537a1.635,1.635,0,0,0,.64-1.014v-.687H40.5a2,2,0,0,0-.492-.393,4.262,4.262,0,0,0-3.479-.115c-1.149.295-1.641.376-2.035.2s-.345-.442.3-.818a5.835,5.835,0,0,1,1.756-.622V67.43l-.837-.147a6.576,6.576,0,0,0-1.74.638l-.837-.458-.968-.1v.589l.935.54a2.506,2.506,0,0,0-.41.458l-.181-.131v.769a1.176,1.176,0,0,0,.689.965,4.656,4.656,0,0,0,3.561,0c.985-.295,1.526-.327,1.9-.115s.23.573-.328.9-1.493,0-2.068,0V72l.853.835a7.63,7.63,0,0,0,2.1-.72l.935.54.968-.556v-.654Z" fill="#ba6000"/>
      <path id="Path_192" data-name="Path 192" d="M40.124,72.028l-.935-.54a7.629,7.629,0,0,1-2.1.72l-.853-.834a6.841,6.841,0,0,0,2.068-.687c.558-.327.722-.671.328-.9s-.919-.18-1.9.115a4.574,4.574,0,0,1-3.561,0c-.87-.491-.952-1.243-.1-1.964l-.935-.54,1-.589.87.507a6.575,6.575,0,0,1,1.74-.638l.837.8a5.836,5.836,0,0,0-1.756.622c-.64.376-.574.655-.3.818s.886.1,2.035-.2a4.262,4.262,0,0,1,3.479.115c.886.507,1,1.293.082,2.062l1,.573Z" fill="#ff8400"/>
      <path id="Path_193" data-name="Path 193" d="M11.684,87a15,15,0,0,1-7.4-1.784,4.725,4.725,0,0,1,0-8.934,15,15,0,0,1,7.4-1.784,15.05,15.05,0,0,1,7.4,1.767,4.725,4.725,0,0,1,0,8.934A15.05,15.05,0,0,1,11.684,87Z" opacity="0.3"/>
      <path id="Path_194" data-name="Path 194" d="M21.235,78.655a6.558,6.558,0,0,0-2.33-2.062,15.926,15.926,0,0,0-14.441,0A6.393,6.393,0,0,0,1.953,78.95l-.492-.295v2.094a5.057,5.057,0,0,0,3,4.156,15.927,15.927,0,0,0,14.441,0,5.107,5.107,0,0,0,3-4.042V78.557Z" fill="#ba6000"/>
      <path id="Path_195" data-name="Path 195" d="M18.9,74.5c4,2.307,4,6.021,0,8.329a15.927,15.927,0,0,1-14.441,0c-4-2.307-4-6.021,0-8.329a16.025,16.025,0,0,1,14.441,0Z" fill="#ff9d26"/>
      <path id="Path_196" data-name="Path 196" d="M17.543,75.366a12.751,12.751,0,0,0-11.487,0c-3.282,1.833-3.282,4.811,0,6.66a12.867,12.867,0,0,0,11.487,0C20.726,80.177,20.726,77.2,17.543,75.366Zm-1.017,6.071a10.464,10.464,0,0,1-9.452,0c-2.609-1.505-2.609-3.943,0-5.449a10.563,10.563,0,0,1,9.452,0C19.135,77.493,19.135,79.931,16.525,81.437Z" fill="#ba6000"/>
      <path id="Path_197" data-name="Path 197" d="M17.543,74.99a12.866,12.866,0,0,0-11.487,0c-3.282,1.849-3.282,4.909,0,6.66a12.867,12.867,0,0,0,11.487,0C20.726,79.817,20.726,76.839,17.543,74.99Zm-1.017,6.054a10.464,10.464,0,0,1-9.452,0c-2.609-1.489-2.609-3.927,0-5.432a10.464,10.464,0,0,1,9.452,0C19.135,77.133,19.135,79.571,16.525,81.044Z" fill="#ff8400"/>
      <path id="Path_198" data-name="Path 198" d="M15.278,80.16a1.488,1.488,0,0,0,.64-1.031v-.687h-.246a1.639,1.639,0,0,0-.476-.393,4.295,4.295,0,0,0-3.4-.065c-1.149.295-1.641.376-2.019.2s-.345-.442.3-.818a6.165,6.165,0,0,1,1.723-.622v-.605l-.837-.147a6.659,6.659,0,0,0-1.756.638l-.919-.491-.952-.1v.671l.935.524a2.505,2.505,0,0,0-.41.458l-.2-.114v.671a1.178,1.178,0,0,0,.689.965,4.706,4.706,0,0,0,3.578,0c.968-.278,1.526-.327,1.9-.115s.23.573-.328.9S12,80,11.422,80v.654l.87.835a7.283,7.283,0,0,0,2.1-.72l.935.54.952-.556V80.1Z" fill="#ba6000"/>
      <path id="Path_199" data-name="Path 199" d="M15.327,80.635l-.935-.54a7.283,7.283,0,0,1-2.1.72l-.87-.835a6.925,6.925,0,0,0,2.018-.687c.558-.327.722-.671.328-.9s-.935-.164-1.9.114a4.705,4.705,0,0,1-3.578,0c-.87-.507-.935-1.243,0-1.98l-.935-.54.952-.54.87.491a6.659,6.659,0,0,1,1.756-.638l.87.835a5.688,5.688,0,0,0-1.756.622c-.64.376-.574.654-.3.818s.87.1,2.018-.2a4.295,4.295,0,0,1,3.5.115c.87.507,1,1.293,0,2.062l1,.573Z" fill="#ff8400"/>
      <path id="Path_200" data-name="Path 200" d="M21.645,76.135a6.772,6.772,0,0,0-2.33-2.062,15.959,15.959,0,0,0-14.458,0A6.442,6.442,0,0,0,2.363,76.43l-.492-.295V78.23a5.073,5.073,0,0,0,2.987,4.156,15.959,15.959,0,0,0,14.458,0A5.09,5.09,0,0,0,22.3,78.344V76.037Z" fill="#ba6000"/>
      <path id="Path_201" data-name="Path 201" d="M19.266,71.963c3.988,2.307,3.988,6.021,0,8.329a16.075,16.075,0,0,1-14.458,0C.82,77.984.82,74.27,4.808,71.963a16.075,16.075,0,0,1,14.458,0Z" fill="#ff9d26"/>
      <path id="Path_202" data-name="Path 202" d="M17.887,72.863a12.717,12.717,0,0,0-11.487,0c-3.282,1.833-3.282,4.811,0,6.643a12.718,12.718,0,0,0,11.487,0C21.087,77.657,21.087,74.679,17.887,72.863Zm-1.017,6.07a10.415,10.415,0,0,1-9.436,0c-2.626-1.505-2.626-3.943,0-5.449a10.415,10.415,0,0,1,9.436,0c2.626,1.489,2.626,3.927,0,5.432Z" fill="#ba6000"/>
      <path id="Path_203" data-name="Path 203" d="M17.887,72.47a12.833,12.833,0,0,0-11.487,0c-3.282,1.849-3.282,4.827,0,6.66a12.833,12.833,0,0,0,11.487,0C21.087,77.3,21.087,74.319,17.887,72.47ZM16.87,78.541a10.415,10.415,0,0,1-9.436,0c-2.626-1.505-2.626-3.943,0-5.432a10.415,10.415,0,0,1,9.436,0C19.5,74.6,19.5,77.035,16.87,78.541Z" fill="#ff8400"/>
      <path id="Path_204" data-name="Path 204" d="M15.639,77.624a1.423,1.423,0,0,0,.64-1.014v-.687h-.23a1.642,1.642,0,0,0-.476-.393,4.294,4.294,0,0,0-3.5-.115c-1.149.295-1.641.376-2.019.2s-.361-.442.3-.8a5.919,5.919,0,0,1,1.74-.638v-.655l-.82-.147a6.116,6.116,0,0,0-1.756.638l-.87-.507-.968-.1v.654l.935.54a2.11,2.11,0,0,0-.41.475l-.181-.147v.687a1.178,1.178,0,0,0,.689.965,4.705,4.705,0,0,0,3.577,0c.968-.294,1.526-.327,1.9-.114s.213.573-.345.9-1.493-.082-2.068,0v.655l.853.835a7.633,7.633,0,0,0,2.1-.72l.935.54.968-.556v-.654Z" fill="#ba6000"/>
      <path id="Path_205" data-name="Path 205" d="M15.672,78.115l-.935-.54a7.628,7.628,0,0,1-2.1.72l-.837-.834a6.841,6.841,0,0,0,2.068-.687c.558-.327.738-.671.345-.9s-.935-.18-1.9.115a4.706,4.706,0,0,1-3.578,0c-.87-.507-.935-1.26-.1-1.98l-.935-.54.968-.556.87.507a6.66,6.66,0,0,1,1.756-.638l.821.8a5.77,5.77,0,0,0-1.74.622c-.656.376-.574.655-.3.818s.87.1,2.018-.2a4.3,4.3,0,0,1,3.5.114c.87.507,1,1.293,0,2.062l1,.573Z" fill="#ff8400"/>
    </g>
  </g>
</svg>
